<?xml version="1.0" standalone="no"?>
<!DOCTYPE svg PUBLIC "-//W3C//DTD SVG 20010904//EN"
 "http://www.w3.org/TR/2001/REC-SVG-20010904/DTD/svg10.dtd">
<svg version="1.0" xmlns="http://www.w3.org/2000/svg"
 width="440.000000pt" height="440.000000pt" viewBox="0 0 440.000000 440.000000"
 preserveAspectRatio="xMidYMid meet">

<g transform="translate(0.000000,440.000000) scale(0.100000,-0.100000)"
fill="#000000" stroke="none">
<path d="M0 4246 c0 -85 4 -157 9 -161 5 -3 31 0 58 5 26 6 81 13 121 16 41 2
77 6 81 8 4 3 41 6 82 7 41 1 79 4 84 8 6 3 42 7 80 8 39 1 75 3 80 4 6 0 29
-1 52 -4 24 -3 45 -2 47 2 3 4 24 8 48 9 24 2 81 7 128 13 47 5 92 10 100 10
8 0 26 3 40 6 25 6 25 6 -5 13 l-30 8 32 1 c17 0 35 -4 38 -9 4 -6 12 -4 21 5
9 8 20 13 24 10 14 -8 91 -8 128 0 25 5 32 3 32 -9 0 -21 10 -20 25 1 8 10 17
13 25 8 16 -10 110 -16 122 -9 5 3 1 12 -9 19 -16 12 -12 13 26 8 35 -5 47 -2
57 12 12 16 17 17 38 6 13 -8 30 -11 38 -8 8 3 6 6 -7 7 -15 1 -12 4 10 11 18
5 31 5 35 -2 4 -5 15 -7 25 -3 12 5 16 4 12 -3 -8 -13 122 -23 138 -11 6 4 40
5 75 2 36 -3 116 -6 177 -7 72 -2 117 -7 125 -15 17 -17 33 -15 18 3 -10 12
-9 15 8 15 11 0 22 -5 24 -11 2 -6 45 -12 110 -14 58 -1 111 -6 116 -9 6 -4
14 -1 18 5 4 7 9 8 13 1 7 -11 97 -25 149 -23 24 1 31 -2 26 -10 -5 -9 4 -11
34 -6 23 3 42 2 42 -2 0 -3 20 -5 45 -3 28 3 45 0 45 -7 0 -6 17 -11 38 -11
21 0 76 -11 123 -25 46 -13 92 -25 102 -25 9 0 17 -4 17 -8 0 -4 15 -13 33
-20 17 -7 50 -27 71 -45 49 -40 156 -149 156 -159 0 -5 6 -8 13 -8 8 0 22 -9
33 -21 10 -12 34 -29 53 -38 l34 -18 -144 -5 c-79 -3 -421 -4 -759 -2 -566 3
-1262 -4 -2207 -21 l-373 -7 0 -1224 0 -1223 25 24 c41 42 67 26 40 -24 -10
-20 -15 -58 -15 -116 0 -91 -12 -130 -36 -121 -12 5 -14 -70 -14 -524 l0 -530
739 0 c736 0 740 0 746 20 9 27 -3 99 -21 127 -18 28 -19 55 -1 32 15 -18 47
-32 47 -19 0 5 -4 12 -10 15 -5 3 -10 19 -10 35 0 16 -5 41 -10 55 -9 23 -8
26 5 21 13 -5 14 -2 5 15 -6 11 -9 25 -7 32 2 7 0 23 -5 37 -5 14 -11 40 -14
58 -3 28 0 35 16 39 16 4 18 8 9 19 -6 8 -12 34 -14 59 -1 26 -7 51 -13 57 -7
7 -4 21 8 46 25 53 69 162 65 162 -4 0 -21 -17 -103 -104 -29 -31 -54 -56 -56
-56 -2 0 -7 12 -10 26 -5 18 -2 31 11 42 10 10 20 26 21 37 2 11 7 25 12 30 4
6 10 21 13 35 4 14 16 35 27 48 11 12 16 22 10 22 -6 0 -13 -7 -17 -16 -5 -13
-7 -13 -14 -2 -7 10 -9 10 -9 1 0 -7 -7 -13 -16 -13 -9 0 -12 -5 -8 -12 4 -6
3 -8 -4 -4 -6 3 -9 23 -7 44 1 20 -1 45 -6 54 -12 23 34 47 77 41 45 -7 53 14
12 32 l-33 14 40 1 c30 0 36 3 25 10 -18 11 -20 11 90 14 47 1 94 6 104 11 14
6 17 5 12 -3 -9 -16 1 -15 60 3 43 13 50 13 60 0 6 -8 14 -15 18 -15 8 0 8 68
0 108 -6 30 -6 30 -60 25 -36 -4 -59 -2 -69 7 -17 14 -20 53 -5 80 8 15 6 21
-9 30 -28 15 -86 12 -129 -5 -20 -9 -47 -13 -59 -10 -15 3 -23 1 -23 -8 0 -7
-11 -23 -24 -36 -22 -20 -25 -21 -52 -6 -16 8 -42 20 -58 25 -23 9 -27 14 -21
33 15 50 17 67 6 67 -6 0 -11 -11 -11 -25 0 -14 -6 -25 -13 -25 -7 0 -43 25
-80 56 -38 31 -70 54 -73 51 -10 -10 25 -64 62 -97 20 -17 55 -40 78 -50 52
-23 87 -49 66 -50 -27 0 -166 88 -199 126 -28 31 -32 42 -26 71 4 21 2 33 -3
29 -10 -6 -47 30 -66 63 -35 62 -111 187 -117 191 -15 12 -99 202 -123 278
-44 140 -30 203 16 75 68 -189 170 -355 289 -470 136 -132 161 -152 229 -184
36 -17 68 -33 73 -36 4 -2 7 0 7 5 0 5 -23 31 -51 58 -76 73 -237 267 -297
359 -65 99 -139 250 -185 375 -41 111 -54 166 -38 156 14 -9 103 -146 192
-295 77 -130 159 -231 188 -231 9 0 32 -15 50 -34 24 -25 44 -35 76 -38 29 -4
62 -19 102 -47 32 -22 62 -41 66 -41 3 0 -34 39 -83 86 -49 48 -88 90 -85 94
3 4 -10 40 -28 79 -39 83 -40 134 -3 129 21 -3 66 -45 66 -62 0 -4 6 -6 14 -3
10 4 16 -2 19 -16 2 -12 5 0 6 26 2 96 -18 139 -95 204 -11 10 -28 29 -37 43
-11 16 -17 19 -18 10 0 -8 -6 2 -14 22 -10 26 -11 53 -5 95 4 32 5 62 2 67 -3
5 -1 6 5 3 14 -9 8 79 -7 98 -6 8 -8 20 -4 27 5 8 1 8 -11 -2 -14 -11 -17 -11
-11 -1 5 8 3 17 -5 22 -10 6 -11 9 -1 9 6 0 12 7 12 15 0 8 5 15 10 15 6 0 10
8 10 18 0 19 -65 63 -168 113 -45 22 -50 27 -25 22 38 -6 86 4 78 16 -3 5 1
12 7 14 10 4 10 8 -2 16 -12 8 -9 14 15 37 24 22 34 25 70 21 23 -4 65 -18 93
-32 55 -28 83 -26 60 3 -12 15 -11 16 4 3 10 -7 15 -17 12 -22 -3 -5 9 -22 26
-38 30 -27 126 -64 285 -110 58 -17 81 -30 129 -76 33 -30 61 -53 63 -51 2 1
-4 20 -12 41 -25 57 -12 51 19 -10 15 -30 31 -57 36 -60 15 -9 21 14 10 35 -6
12 -9 29 -7 38 3 15 5 14 11 -3 4 -11 14 -33 22 -50 l15 -30 -5 35 c-2 19 -8
44 -12 54 -6 16 -4 18 9 13 11 -4 17 -1 17 9 0 8 5 12 10 9 6 -3 10 -17 10
-31 0 -14 -4 -22 -10 -19 -5 3 -10 -1 -10 -9 0 -10 6 -13 15 -10 17 7 21 -11
5 -21 -6 -4 -8 -11 -4 -16 8 -14 24 -1 24 21 0 10 6 23 14 27 8 4 30 23 50 41
20 18 36 28 36 22 0 -6 5 -8 10 -5 6 3 9 -2 7 -12 -4 -25 -17 -44 -26 -38 -9
5 -47 -33 -67 -67 -24 -42 -27 -49 -19 -56 10 -10 101 96 125 146 11 23 23 42
26 42 3 0 2 -19 -2 -42 -4 -24 -8 -65 -9 -93 -1 -27 -4 -57 -8 -65 -8 -23 -29
-141 -32 -187 -3 -35 3 -50 40 -100 53 -74 75 -116 75 -144 0 -26 -38 -78 -94
-128 -22 -20 -47 -44 -55 -54 -24 -28 -86 -57 -121 -57 -31 0 -70 30 -70 53 0
23 -65 156 -77 157 -6 0 -15 5 -19 12 -4 7 -3 8 4 4 16 -10 15 -2 -18 94 -30
85 -30 85 -15 -34 2 -21 11 -51 19 -67 9 -18 12 -43 9 -64 -5 -31 -3 -33 16
-28 25 6 26 1 6 -63 -12 -39 -13 -61 -4 -109 12 -72 29 -131 46 -165 7 -14 13
-35 13 -47 0 -18 32 -145 57 -226 5 -17 -24 -50 -38 -41 -4 2 -12 -3 -19 -11
-7 -8 -28 -17 -47 -21 -34 -6 -35 -8 -30 -42 4 -19 9 -37 12 -40 3 -3 28 7 56
21 27 15 54 25 59 22 6 -3 7 1 3 11 -5 14 -3 15 15 5 12 -6 25 -24 28 -39 4
-15 18 -52 31 -82 14 -30 30 -86 35 -125 5 -38 15 -81 21 -94 13 -26 15 -232
3 -292 -5 -20 -4 -39 1 -42 4 -3 29 -3 55 0 38 4 45 9 40 22 -5 13 -3 14 10 3
18 -14 72 -6 62 10 -3 5 -1 14 4 21 14 18 21 56 12 62 -5 3 -7 29 -5 58 2 28
5 59 5 67 1 10 4 9 10 -5 13 -30 12 -179 -1 -192 -8 -8 -6 -14 9 -22 14 -7 18
-17 15 -36 -4 -17 -1 -25 9 -25 8 0 20 -12 27 -27 8 -16 17 -35 21 -43 4 -8 2
-26 -4 -39 -8 -19 -8 -25 2 -29 14 -4 16 -38 2 -47 -6 -3 -10 -24 -10 -45 0
-26 -8 -48 -24 -67 -23 -28 -33 -57 -43 -125 l-5 -38 86 0 86 0 0 81 c0 68 2
80 15 75 11 -4 15 2 15 24 0 17 -4 30 -8 30 -4 0 -8 17 -9 38 -1 32 0 34 7 12
8 -24 9 -21 15 25 1 11 7 38 14 60 17 63 14 168 -9 227 -11 28 -17 54 -15 56
9 10 38 -74 45 -133 4 -33 17 -82 29 -110 l21 -50 -2 53 c-3 51 4 67 16 36 3
-9 6 -30 7 -47 l1 -32 8 35 c5 19 6 38 3 42 -2 5 -7 30 -10 56 -5 51 -23 96
-74 182 -25 43 -27 51 -10 36 11 -11 21 -25 21 -31 0 -7 6 -18 14 -24 11 -10
16 -8 20 7 19 58 6 112 -37 160 -39 43 5 23 48 -22 51 -53 57 -78 60 -246 2
-69 7 -136 13 -150 9 -22 11 -22 12 -5 1 11 3 49 6 85 2 36 6 91 8 122 2 32 0
60 -5 64 -5 3 -9 -5 -9 -17 0 -12 -3 -19 -6 -16 -8 7 14 91 33 127 16 31 16
45 -1 92 -12 34 -12 37 3 28 22 -11 36 -41 55 -120 9 -36 32 -96 51 -135 40
-82 60 -130 69 -165 14 -50 -24 11 -40 66 -8 27 -30 74 -49 104 -27 42 -36 50
-41 36 -9 -22 11 -89 42 -143 13 -23 33 -69 43 -102 10 -32 30 -71 45 -86 14
-14 26 -36 26 -48 0 -16 -3 -18 -9 -8 -9 13 -17 -40 -27 -192 l-6 -77 30 0 30
0 -4 107 c-3 113 -1 110 17 -24 8 -59 15 -83 25 -83 8 0 14 8 14 18 0 28 -29
182 -44 237 -23 81 -24 100 -3 97 15 -3 16 0 9 15 -6 10 -10 20 -10 23 0 3 -3
46 -7 97 -6 80 -10 94 -30 107 -14 9 -22 25 -22 41 0 14 -8 34 -17 44 -26 29
-18 37 10 10 27 -24 83 -133 110 -213 12 -37 12 -39 -1 -22 -8 11 -15 26 -15
34 0 7 -5 10 -11 6 -15 -9 -2 -88 21 -134 26 -52 40 -131 38 -218 l-1 -77 -7
100 c-3 55 -12 109 -19 120 -10 17 -11 4 -6 -75 11 -173 17 -205 41 -208 12
-2 24 3 26 10 9 24 -11 212 -31 286 -11 42 -15 72 -9 72 6 0 8 7 4 15 -10 27
3 16 20 -17 13 -26 41 -251 44 -350 0 -14 9 -18 44 -18 25 0 48 4 51 10 3 5 2
10 -2 10 -5 0 -17 26 -27 58 -10 31 -22 66 -26 78 -29 75 -54 190 -56 254 -4
108 -10 144 -30 174 -19 30 -35 104 -24 111 4 3 13 -16 19 -42 13 -51 48 -117
93 -175 25 -32 27 -40 16 -57 -9 -15 -9 -25 0 -45 11 -24 29 -28 62 -16 3 2 8
2 12 1 17 -2 28 38 18 65 -6 15 -8 29 -5 32 11 11 34 -24 43 -68 l10 -45 1 45
c1 40 3 43 15 27 12 -16 14 -16 20 -1 8 20 8 25 -1 21 -9 -2 -13 6 -13 26 0 8
4 7 11 -3 7 -11 8 -6 3 20 -3 19 -12 42 -20 51 -8 8 -14 20 -14 25 -1 11 -36
54 -44 54 -3 0 -6 -21 -6 -47 0 -27 -5 -55 -10 -63 -8 -11 -10 4 -8 52 2 36 6
64 11 61 9 -5 9 19 -1 32 -4 6 -26 27 -50 48 -23 20 -37 37 -31 37 6 0 46 -35
88 -77 42 -42 81 -77 87 -78 6 0 36 -26 66 -57 31 -32 61 -59 67 -59 6 -1 16
-2 23 -3 6 0 19 -19 28 -40 14 -34 22 -41 60 -50 41 -10 47 -16 78 -75 18 -36
48 -82 67 -103 19 -20 37 -50 41 -65 12 -56 16 -63 45 -93 22 -22 40 -30 66
-30 l35 0 -49 47 c-27 27 -67 75 -87 108 -21 33 -59 93 -85 133 -25 40 -59 90
-75 110 -16 20 -41 64 -56 97 -15 33 -34 66 -43 73 -14 12 -15 10 -11 -25 5
-36 3 -35 -30 27 -24 45 -50 77 -85 104 -29 21 -49 41 -47 44 3 3 12 -1 21 -8
28 -23 26 -3 -5 49 -32 55 -36 71 -20 71 6 0 10 -7 10 -15 0 -8 9 -15 21 -15
16 0 19 -4 14 -22 -6 -18 -4 -20 11 -13 11 4 27 10 36 12 10 3 18 9 18 14 0 5
5 9 10 9 13 0 13 -41 0 -76 -9 -23 -7 -31 12 -53 13 -14 15 -19 6 -12 -29 22
-20 2 20 -48 21 -25 53 -67 70 -93 48 -70 142 -142 142 -109 0 16 37 0 61 -25
12 -13 26 -24 31 -24 14 0 9 37 -7 50 -17 14 -21 90 -5 90 6 0 10 -4 10 -10 0
-5 25 -24 55 -41 30 -17 73 -51 94 -76 42 -47 76 -129 65 -156 -3 -9 -1 -40 4
-69 6 -29 14 -75 17 -101 5 -38 10 -47 23 -45 14 3 17 15 14 78 -2 41 -6 83
-8 93 -3 9 -1 17 5 17 10 0 12 -9 28 -125 l8 -60 50 0 50 0 1 70 c2 155 -14
309 -38 373 -23 62 -106 162 -133 162 -7 0 -15 9 -18 20 -3 11 -13 20 -22 20
-10 0 -32 13 -51 29 -32 29 -74 33 -74 8 0 -5 -9 0 -20 13 -11 12 -26 20 -34
17 -8 -3 -20 0 -26 8 -6 8 -18 11 -25 8 -8 -3 -30 4 -48 16 -24 15 -43 19 -68
15 -36 -6 -42 -3 -82 46 -13 16 -22 19 -31 11 -9 -8 -24 0 -56 29 -24 22 -50
40 -56 40 -19 0 -50 52 -46 78 2 12 8 22 14 22 6 0 8 -11 6 -25 -3 -15 2 -32
14 -45 25 -27 38 -25 38 6 0 18 4 23 13 17 17 -11 39 -13 51 -5 6 3 0 10 -14
14 -20 6 -19 7 8 3 27 -4 32 -1 32 15 0 11 5 20 11 20 6 0 9 -7 5 -15 -4 -12
-2 -13 12 -6 14 7 21 5 30 -10 10 -16 9 -19 -3 -19 -8 0 -15 -4 -15 -10 0 -5
-11 -10 -24 -10 -14 0 -28 -4 -31 -10 -3 -6 5 -10 19 -10 14 0 27 4 30 8 8 14
77 13 106 -2 20 -10 30 -11 33 -3 2 7 14 3 32 -11 15 -12 39 -22 54 -23 14 0
20 -3 14 -6 -23 -9 4 -39 52 -57 32 -13 45 -23 45 -37 0 -14 7 -19 25 -19 30
0 96 -30 89 -42 -3 -4 2 -5 10 -2 9 4 16 1 16 -6 0 -14 29 -39 45 -39 6 0 -1
9 -14 19 -28 24 -20 26 17 3 15 -9 38 -23 52 -32 23 -13 110 -25 110 -14 0 3
-10 13 -22 23 -22 17 -22 20 -6 36 15 16 19 15 60 -5 54 -26 58 -26 58 -3 -1
9 -19 35 -40 57 -22 22 -40 44 -40 50 0 6 -13 26 -30 45 -31 37 -40 61 -15 40
8 -7 15 -9 15 -4 0 5 10 -2 21 -16 l21 -25 -14 25 c-22 37 -30 88 -15 94 7 2
0 5 -15 5 -28 1 -42 31 -15 31 13 0 17 34 6 45 -3 2 -20 1 -37 -4 -42 -13 -40
-7 7 20 37 20 38 22 23 40 -18 21 -53 25 -83 8 -28 -14 -46 -7 -27 11 8 8 17
22 20 31 8 22 96 43 145 35 83 -13 122 -15 127 -7 15 24 -287 28 -444 6 -58
-8 -118 -18 -134 -21 -20 -5 -27 -4 -22 5 12 19 -8 12 -27 -9 -26 -30 -80 -27
-102 6 -16 25 -16 30 -2 59 12 26 34 41 112 79 53 25 105 46 116 46 11 0 36 7
55 15 19 8 51 15 70 17 19 1 34 6 34 10 0 4 12 8 26 8 14 0 23 -4 19 -10 -4
-6 6 -10 22 -11 25 0 26 -1 8 -9 -15 -6 -8 -9 28 -9 62 -1 182 -56 220 -100
l27 -33 0 1592 0 1591 -1332 -2 c-733 -1 -1327 -4 -1320 -6 6 -3 10 -8 7 -13
-3 -5 -1 -20 4 -34 8 -20 7 -24 -4 -20 -16 7 -27 32 -20 45 4 5 -9 6 -27 4
-25 -4 -28 -3 -13 4 31 14 -104 17 -937 19 l-758 3 0 -155z m1520 70 c0 -11
-19 -15 -25 -6 -3 5 1 10 9 10 9 0 16 -2 16 -4z m195 -6 c3 -5 -1 -10 -10 -10
-9 0 -13 5 -10 10 3 6 8 10 10 10 2 0 7 -4 10 -10z m155 -28 c0 -12 -23 -32
-37 -32 -9 0 -8 6 4 20 18 21 33 26 33 12z m-86 -21 c3 -5 -7 -11 -22 -14 -32
-6 -42 0 -22 13 19 12 37 13 44 1z m256 -2 c0 -13 -39 -17 -49 -5 -8 10 -3 13
19 13 17 0 30 -4 30 -8z m54 -4 c4 -10 -1 -15 -14 -15 -13 0 -18 5 -14 15 4 8
10 15 14 15 4 0 10 -7 14 -15z m200 -1 c4 -10 1 -14 -6 -12 -15 5 -23 28 -10
28 5 0 13 -7 16 -16z m-584 -10 c0 -2 -9 -4 -20 -4 -11 0 -20 4 -20 9 0 5 9 7
20 4 11 -3 20 -7 20 -9z m-41 -794 c-4 -8 -5 -28 -4 -43 3 -27 3 -28 -20 -13
-20 13 -24 13 -43 -4 -18 -17 -32 -18 -122 -14 -100 5 -104 4 -159 -25 -54
-28 -140 -55 -150 -46 -2 3 13 12 35 21 72 29 126 55 122 59 -7 7 -78 -18 -78
-27 0 -5 -5 -6 -10 -3 -6 4 -26 -3 -45 -15 -36 -22 -49 -18 -18 6 10 7 15 15
11 19 -3 4 -27 -12 -52 -35 -25 -24 -46 -38 -46 -32 0 14 90 92 120 104 14 5
42 10 63 10 33 0 37 3 32 22 -5 20 -4 20 6 -1 9 -17 21 -23 45 -23 33 0 84 17
95 33 3 4 29 10 57 14 34 4 52 10 52 19 0 8 5 14 10 14 6 0 10 -7 10 -15 0 -9
10 -20 23 -24 27 -11 56 11 58 43 1 18 2 18 8 -4 5 -14 5 -32 0 -40z m-222 18
c-3 -7 -5 -2 -5 12 0 14 2 19 5 13 2 -7 2 -19 0 -25z m700 18 c-4 -9 0 -12 13
-9 10 3 45 -5 79 -17 52 -19 61 -26 61 -47 0 -13 -7 -35 -16 -48 -14 -21 -21
-24 -54 -19 -20 3 -46 1 -58 -5 -28 -15 -78 4 -86 32 -3 11 3 37 14 56 10 20
21 44 24 54 3 9 10 17 17 17 6 0 9 -6 6 -14z m-870 -38 c-3 -7 -5 -2 -5 12 0
14 2 19 5 13 2 -7 2 -19 0 -25z m236 -130 c5 6 14 12 21 12 20 0 79 -57 71
-69 -3 -7 2 -11 15 -11 21 0 21 -1 4 -29 -10 -17 -21 -28 -26 -25 -10 6 -10 1
-2 -20 5 -13 9 -14 20 -5 12 10 13 8 5 -14 -9 -22 -6 -30 19 -57 25 -27 28
-34 18 -56 -6 -13 -16 -24 -22 -24 -15 0 -59 30 -70 48 -4 8 -23 20 -42 28
-35 15 -56 48 -56 91 0 14 -5 20 -12 16 -7 -4 -7 -2 1 7 8 8 9 20 2 36 -7 19
-4 29 11 44 11 11 20 22 20 25 0 41 3 47 9 20 4 -20 9 -26 14 -17z m-463 -82
c0 -2 -8 -10 -17 -17 -16 -13 -17 -12 -4 4 13 16 21 21 21 13z m917 -33 c22
-29 34 -53 26 -52 -4 1 -22 -2 -40 -6 -27 -6 -33 -13 -38 -47 -10 -57 -29 -42
-33 26 -2 44 1 63 14 77 21 24 53 24 71 2z m-546 -92 c7 -31 17 -63 23 -71 6
-9 2 -7 -11 3 -21 19 -22 19 -16 -14 4 -28 3 -31 -10 -21 -7 6 -16 10 -18 7
-3 -2 -5 20 -4 50 0 36 -4 56 -12 59 -12 5 -15 50 -5 69 10 20 42 -30 53 -82z
m-421 75 c0 -2 -8 -10 -17 -17 -16 -13 -17 -12 -4 4 13 16 21 21 21 13z m322
-28 c8 -25 2 -112 -9 -115 -11 -4 -43 55 -43 80 0 28 12 47 30 47 10 0 20 -6
22 -12z m365 -46 c-14 -17 -22 0 -12 26 5 14 7 14 15 2 5 -9 4 -20 -3 -28z
m323 -3 c0 -6 7 -9 15 -5 11 4 15 -2 15 -23 0 -16 -3 -36 -6 -45 -7 -19 -38
-21 -51 -3 -14 17 -12 46 3 40 6 -2 15 0 19 6 3 6 1 12 -4 12 -6 1 -15 3 -21
4 -5 1 -13 3 -16 4 -3 0 -2 6 1 11 8 14 45 13 45 -1z m-274 -24 c-8 -8 -21
-15 -28 -15 -8 1 -6 6 6 15 26 20 42 19 22 0z m344 -42 c0 -13 -3 -13 -15 -3
-8 7 -12 16 -9 21 8 13 24 1 24 -18z m-117 -22 c56 -29 67 -40 67 -74 0 -35
-25 -67 -52 -67 -11 0 -17 -4 -13 -9 6 -10 -21 -41 -35 -41 -5 0 -16 8 -25 17
-16 16 -16 18 1 31 13 10 15 16 7 19 -24 9 -13 23 12 17 31 -8 32 2 3 26 -21
16 -21 18 -4 17 26 -3 29 30 3 37 -12 3 -25 0 -29 -7 -5 -8 -8 -6 -8 6 0 17
19 46 30 47 3 0 23 -9 43 -19z m-297 -73 c-19 -26 -20 -20 -5 19 6 15 13 22
16 16 2 -7 -3 -23 -11 -35z m409 33 c3 -5 1 -12 -5 -16 -5 -3 -10 1 -10 9 0
18 6 21 15 7z m-1856 -65 c21 -33 27 -79 15 -110 -7 -17 -44 -22 -44 -6 0 6
-5 10 -11 10 -6 0 -8 -11 -5 -27 4 -19 0 -36 -13 -53 -19 -24 -20 -24 -54 -8
-27 13 -36 24 -41 52 -6 30 -2 41 29 81 19 26 35 50 35 55 0 8 45 36 62 39 3
1 16 -14 27 -33z m3049 -39 c19 -7 32 -18 31 -27 -4 -42 16 -55 40 -26 28 33
77 -19 58 -62 -6 -12 -14 -23 -19 -23 -4 -1 -12 -3 -18 -4 -5 -1 -14 -3 -18
-4 -5 0 -16 -19 -26 -40 -17 -40 -17 -40 -69 -37 -64 4 -112 32 -138 81 -18
34 -19 39 -5 54 9 10 16 24 16 32 0 8 9 29 20 47 19 30 23 32 58 26 20 -3 52
-11 70 -17z m-846 -22 c9 4 18 0 21 -9 3 -8 24 -20 46 -27 34 -10 41 -16 41
-38 -1 -46 -57 -94 -84 -72 -10 8 -20 6 -37 -8 -24 -19 -25 -19 -52 3 l-28 22
22 49 c15 33 18 50 10 53 -14 5 -14 25 1 40 9 9 16 8 28 -3 10 -9 24 -13 32
-10z m-370 -35 c-16 -15 -20 -27 -16 -49 5 -23 2 -32 -15 -43 -12 -7 -21 -18
-21 -25 0 -19 -18 -16 -32 6 -10 16 -15 18 -27 8 -24 -19 24 45 56 74 25 24
61 48 72 49 3 0 -5 -9 -17 -20z m-309 -77 c11 -13 17 -23 12 -23 -15 0 -45 43
-44 64 1 20 2 20 6 1 3 -11 14 -30 26 -42z m-756 -83 c14 -11 31 -20 37 -20
16 0 103 -85 99 -97 -2 -6 8 -18 23 -28 28 -18 73 -65 74 -77 0 -3 -16 -5 -36
-3 -33 3 -144 75 -144 93 0 4 -22 34 -50 67 -49 58 -61 85 -39 85 6 0 22 -9
36 -20z m1013 0 c0 -5 -4 -10 -10 -10 -5 0 -10 5 -10 10 0 6 5 10 10 10 6 0
10 -4 10 -10z m-40 -20 c0 -5 -2 -10 -4 -10 -3 0 -8 5 -11 10 -3 6 -1 10 4 10
6 0 11 -4 11 -10z m-1010 -113 c0 -4 -7 -2 -15 7 -8 8 -15 21 -15 28 1 14 30
-20 30 -35z m-550 -29 c25 -41 25 -48 1 -48 -17 0 -51 47 -51 72 0 20 32 5 50
-24z m549 -20 c9 -25 8 -29 -4 -25 -9 4 -12 1 -8 -9 3 -7 9 -14 14 -14 5 0 9
-4 9 -10 0 -5 23 -49 50 -97 50 -87 66 -134 36 -103 -15 16 -34 47 -87 143
-18 31 -34 56 -36 53 -2 -2 6 -36 18 -75 11 -40 19 -75 16 -78 -3 -2 -16 15
-28 39 -21 41 -23 55 -18 175 1 49 21 49 38 1z m35 -34 c3 -8 2 -12 -4 -9 -6
3 -10 10 -10 16 0 14 7 11 14 -7z m-220 -176 c8 -65 20 -127 26 -138 8 -16 8
-20 -2 -18 -8 2 -14 -10 -16 -34 -2 -21 -7 -38 -11 -38 -14 0 -20 52 -26 232
-6 194 5 192 29 -4z m302 100 c8 -15 10 -29 5 -33 -5 -3 -12 3 -16 14 -3 10
-14 26 -25 36 -11 10 -20 25 -20 33 0 20 37 -12 56 -50z m-626 32 c0 -5 -4
-10 -10 -10 -5 0 -10 5 -10 10 0 6 5 10 10 10 6 0 10 -4 10 -10z m2665 -270
c4 -6 -5 -10 -20 -10 -15 0 -24 4 -20 10 3 6 12 10 20 10 8 0 17 -4 20 -10z
m-36 -54 c14 -17 4 -69 -13 -63 -13 4 -21 77 -8 77 5 0 15 -6 21 -14z m303
-148 c8 -29 20 -44 40 -52 16 -7 25 -16 21 -20 -5 -4 -9 -27 -10 -49 -6 -112
-14 -141 -46 -168 l-31 -26 42 -24 c23 -13 42 -30 42 -36 0 -18 -29 -51 -68
-78 -31 -21 -36 -22 -60 -9 -32 17 -56 18 -83 4 -15 -9 -19 -7 -19 5 0 25 19
55 35 55 8 0 15 5 15 10 0 6 -5 10 -10 10 -6 0 -8 15 -4 38 4 28 2 41 -10 51
-9 7 -16 20 -16 28 0 17 -36 72 -58 91 -9 6 -26 12 -39 12 -25 0 -31 14 -11
26 8 5 2 11 -17 15 -51 14 -62 -16 -20 -53 14 -12 25 -28 25 -35 0 -8 5 -11
10 -8 6 3 20 3 32 -1 19 -6 17 -8 -18 -20 -49 -17 -46 -17 -39 5 4 15 -4 21
-49 35 -32 10 -64 29 -80 47 l-27 30 15 68 c7 38 17 74 21 80 10 17 30 -8 46
-59 l14 -45 65 -1 c36 0 70 -3 76 -7 18 -10 116 19 131 39 7 10 18 35 23 55
14 50 45 43 62 -13z m134 7 c57 -24 147 -170 116 -189 -21 -13 -172 105 -172
135 0 5 -4 9 -8 9 -5 0 -15 12 -22 26 -12 22 -12 27 0 34 15 10 33 7 86 -15z
m-599 -55 c-14 -11 -28 -20 -31 -20 -4 0 -2 9 4 20 6 11 20 20 32 20 20 0 19
-1 -5 -20z m-842 -177 c14 -32 14 -157 0 -208 -8 -30 -15 -44 -19 -35 -27 70
-36 113 -36 175 0 39 3 75 7 78 13 13 41 7 48 -10z m1120 -23 c3 -5 1 -10 -4
-10 -6 0 -11 5 -11 10 0 6 2 10 4 10 3 0 8 -4 11 -10z m-57 -19 c10 -6 9 -10
-7 -14 -21 -5 -36 5 -24 17 8 8 15 7 31 -3z m22 -36 c-10 -12 -9 -15 6 -15 16
0 17 -2 4 -10 -8 -5 -36 -9 -61 -8 -25 0 -51 -2 -57 -6 -7 -4 -12 -1 -12 8 0
9 9 16 20 16 11 0 20 4 20 8 0 8 81 30 89 25 2 -1 -2 -9 -9 -18z m364 -181
c31 -20 28 -60 -8 -91 -14 -12 -26 -26 -26 -30 0 -15 -161 -143 -180 -143 -5
0 -13 -6 -17 -14 -9 -16 -206 -116 -228 -116 -8 0 -15 -4 -15 -10 0 -5 6 -10
13 -10 7 0 23 -7 36 -16 18 -13 20 -18 10 -25 -11 -6 -11 -17 -2 -51 l11 -43
-19 24 c-11 13 -18 30 -15 38 7 17 -3 43 -16 43 -6 0 -21 11 -34 25 -13 14
-34 25 -49 25 -51 0 -23 22 110 88 28 13 52 28 53 33 2 5 9 9 15 9 14 0 138
126 179 182 15 19 39 39 54 42 14 4 43 18 63 32 42 29 36 28 65 8z m-3348
-119 c3 -8 -1 -24 -10 -37 -11 -16 -16 -46 -16 -104 0 -86 -15 -147 -34 -141
-14 4 -30 168 -21 216 6 33 44 81 65 81 6 0 13 -7 16 -15z m82 6 c12 -7 11
-14 -2 -39 -10 -20 -16 -56 -16 -100 0 -86 -9 -132 -25 -132 -18 0 -22 16 -30
106 -7 82 1 122 32 156 18 20 22 21 41 9z m90 0 c12 -7 11 -13 -1 -37 -8 -16
-17 -68 -19 -117 -5 -90 -17 -122 -40 -99 -7 7 -12 48 -12 111 -1 92 1 101 23
125 27 29 30 30 49 17z m90 0 c12 -7 11 -13 -1 -37 -8 -16 -18 -66 -22 -111
-4 -47 -13 -87 -20 -93 -21 -17 -27 3 -33 99 -4 83 -3 88 23 119 29 34 33 36
53 23z m95 -11 c-1 -8 -9 -33 -17 -55 -8 -22 -15 -61 -16 -86 0 -48 -21 -91
-34 -70 -12 18 -19 116 -12 153 3 19 16 45 27 57 22 24 55 24 52 1z m111 -15
c22 -34 20 -52 -9 -71 -14 -9 -25 -24 -25 -33 0 -21 -47 -67 -57 -57 -5 4 -8
39 -8 78 0 64 2 72 28 93 31 27 49 24 71 -10z m1548 -80 c25 -46 41 -136 31
-164 -8 -21 -13 -13 -41 65 -30 86 -52 160 -52 177 0 12 44 -43 62 -78z m638
59 c0 -13 -8 -15 -35 -12 -19 2 -35 0 -35 -4 0 -4 -7 -8 -15 -8 -8 0 -15 -4
-15 -8 0 -5 -13 -7 -30 -4 -39 6 -38 14 3 35 44 22 127 23 127 1z m-1791 -128
c-51 -115 -264 -386 -304 -386 -25 0 2 42 100 155 47 55 89 107 93 115 12 31
123 173 129 167 2 -2 -6 -25 -18 -51z m1861 14 c8 -15 8 -21 -2 -24 -7 -2 -20
-6 -29 -9 -9 -3 -22 0 -29 6 -10 9 -11 7 -5 -12 5 -16 4 -21 -4 -17 -14 9 -14
17 -1 50 12 32 54 36 70 6z m-183 -52 c-2 -30 -6 -33 -37 -36 -99 -7 -110 -12
-110 -52 0 -16 -5 -32 -12 -36 -15 -10 -48 32 -48 61 0 21 4 23 32 19 18 -2
35 0 38 4 10 15 81 52 100 52 10 0 22 5 25 10 11 18 15 11 12 -22z m751 -11
c2 -10 1 -25 -2 -33 -5 -12 -9 -12 -25 -2 -23 14 -34 45 -17 52 21 9 41 1 44
-17z m-162 -55 c-3 -5 -18 -7 -33 -4 l-28 6 30 6 c34 7 40 5 31 -8z m-528 -18
c34 -9 62 -20 62 -24 0 -10 -53 -20 -111 -20 -27 0 -49 -4 -49 -10 0 -5 -6
-10 -14 -10 -17 0 -29 27 -16 35 7 4 6 13 0 25 -5 10 -10 22 -10 25 0 10 62 0
138 -21z m-148 11 c0 -11 -26 -61 -35 -67 -14 -11 -25 -10 -25 2 0 6 7 10 15
10 10 0 15 10 15 30 0 20 5 30 15 30 8 0 15 -2 15 -5z m790 -2 c-36 -7 -50
-22 -50 -54 0 -35 -13 -37 -34 -7 -12 17 -13 25 -4 36 17 20 47 31 83 30 27
-1 27 -1 5 -5z m-927 -14 c-9 -9 -6 -17 8 -32 10 -12 19 -35 19 -53 0 -28 -4
-32 -30 -36 -17 -3 -33 -1 -35 2 -3 4 -25 13 -50 19 -34 9 -46 17 -51 36 -4
16 -14 25 -32 27 -14 2 -27 9 -30 17 -3 9 1 11 16 7 11 -4 31 -1 45 5 17 8 35
8 54 2 20 -7 35 -6 53 4 31 16 48 17 33 2z m510 -46 c-4 -24 -11 -33 -24 -33
-12 0 -16 5 -13 15 4 9 1 15 -7 15 -7 0 -3 10 11 25 28 30 40 22 33 -22z m497
30 c-63 -20 -69 -21 -81 -7 -10 12 -3 14 42 13 30 0 47 -3 39 -6z m30 -38 c0
-3 -20 -5 -45 -5 -26 0 -45 5 -45 11 0 7 10 9 25 7 14 -3 25 -1 25 4 0 5 9 4
20 -2 11 -6 20 -13 20 -15z m113 -2 c-7 -2 -19 -2 -25 0 -7 3 -2 5 12 5 14 0
19 -2 13 -5z m-2669 -64 c-17 -72 -19 -75 -45 -90 -18 -9 -19 -8 -7 10 7 11 8
24 4 28 -5 4 -11 2 -13 -4 -8 -22 -42 -59 -43 -46 0 7 13 27 28 45 15 18 40
52 56 76 16 23 30 42 31 42 2 0 -3 -28 -11 -61z m1906 41 c0 -19 -11 -26 -23
-14 -8 8 3 34 14 34 5 0 9 -9 9 -20z m437 -56 c-10 -10 -37 16 -37 34 0 13 4
12 22 -5 12 -13 19 -25 15 -29z m-208 -4 c48 -38 81 -80 63 -80 -5 0 -19 12
-33 26 -13 14 -44 35 -69 47 -56 25 -53 24 -45 36 11 19 32 12 84 -29z m-346
14 c9 -4 17 -11 17 -16 0 -5 5 -6 10 -3 6 3 10 -1 10 -9 0 -9 9 -21 20 -28 11
-7 20 -16 20 -21 0 -4 -26 14 -57 39 -69 56 -72 59 -53 50 8 -3 23 -9 33 -12z
m-87 -39 c3 -19 10 -35 15 -35 12 0 32 -79 24 -98 -5 -13 -8 -12 -24 4 -14 15
-16 25 -9 44 7 19 5 27 -10 40 -32 25 -45 58 -30 74 18 19 26 12 34 -29z m700
0 c22 -19 34 -35 27 -35 -10 0 -73 56 -73 66 0 9 9 3 46 -31z m-351 -23 c6 -4
17 -16 25 -27 13 -17 11 -16 -17 4 -18 12 -33 24 -33 27 0 6 14 5 25 -4z m225
-22 c9 -16 8 -18 -5 -14 -8 4 -15 12 -15 20 0 20 7 17 20 -6z m180 -9 c0 -6
-4 -13 -10 -16 -5 -3 -10 1 -10 9 0 9 5 16 10 16 6 0 10 -4 10 -9z m-509 -62
c33 -30 64 -79 51 -79 -5 0 -22 17 -37 38 -16 20 -42 53 -59 72 -31 35 -16 25
45 -31z m-2034 19 c-3 -8 -6 -5 -6 6 -1 11 2 17 5 13 3 -3 4 -12 1 -19z m1409
13 c-8 -12 -55 -20 -61 -10 -5 8 16 16 48 18 10 0 16 -3 13 -8z m984 0 c0 -6
-4 -13 -10 -16 -5 -3 -10 1 -10 9 0 9 5 16 10 16 6 0 10 -4 10 -9z m-2333 -33
c-3 -7 -5 -2 -5 12 0 14 2 19 5 13 2 -7 2 -19 0 -25z m1270 -10 c-3 -8 -6 -5
-6 6 -1 11 2 17 5 13 3 -3 4 -12 1 -19z m1359 -119 c35 -21 45 -32 20 -23 -8
3 -17 0 -21 -6 -5 -8 -15 -5 -31 11 -13 12 -21 26 -18 30 7 13 13 11 50 -12z
m429 -36 c19 -9 35 -21 35 -25 0 -5 4 -7 8 -4 5 3 22 -8 37 -24 22 -23 26 -33
17 -42 -9 -9 -13 -7 -19 8 -7 20 -33 50 -33 39 0 -4 -16 5 -35 19 -19 15 -40
24 -47 20 -6 -4 -8 -3 -4 4 3 6 -2 13 -11 15 -17 4 -17 5 -1 6 10 0 33 -7 53
-16z m-956 -98 c0 -30 -15 1 -22 45 l-6 35 14 -30 c8 -16 14 -39 14 -50z m691
43 c0 -14 -16 -9 -36 13 -19 21 -19 21 9 8 15 -7 27 -16 27 -21z m-1460 2 c0
-5 -4 -10 -10 -10 -5 0 -10 5 -10 10 0 6 5 10 10 10 6 0 10 -4 10 -10z m-70
-10 c0 -5 -2 -10 -4 -10 -3 0 -8 5 -11 10 -3 6 -1 10 4 10 6 0 11 -4 11 -10z
m1509 -16 c17 -4 28 -10 25 -15 -8 -14 -50 -10 -64 6 -14 17 -8 18 39 9z
m-422 -26 c-3 -8 -6 -5 -6 6 -1 11 2 17 5 13 3 -3 4 -12 1 -19z m863 -63 c17
-51 26 -166 20 -265 l-5 -95 -7 70 c-14 132 -52 240 -115 323 -13 17 -20 32
-14 32 5 0 12 -4 16 -10 3 -5 12 -7 20 -3 9 3 15 -1 16 -8 0 -8 5 -3 10 11
l10 25 19 -25 c11 -14 24 -39 30 -55z m-163 12 c10 4 10 10 2 26 -9 17 -5 16
21 -8 45 -42 79 -115 87 -185 3 -33 3 -60 0 -60 -3 0 -18 21 -33 46 -15 25
-47 69 -71 97 -24 28 -41 57 -38 65 2 7 1 11 -3 8 -4 -2 -23 9 -42 25 l-35 29
49 -24 c27 -13 55 -22 63 -19z m-1525 -147 c-6 -19 -14 -55 -18 -80 l-7 -45
-7 32 c-9 41 -2 130 12 157 11 20 11 20 20 -4 6 -16 6 -38 0 -60z m475 -52
c-3 -8 -6 -5 -6 6 -1 11 2 17 5 13 3 -3 4 -12 1 -19z"/>
<path d="M1510 3415 c0 -10 10 -15 29 -15 35 0 61 9 61 21 0 5 -11 4 -24 -2
-17 -8 -29 -8 -45 0 -17 10 -21 9 -21 -4z"/>
<path d="M1200 3369 c0 -5 5 -7 10 -4 6 3 10 8 10 11 0 2 -4 4 -10 4 -5 0 -10
-5 -10 -11z"/>
<path d="M1991 2744 c0 -11 3 -14 6 -6 3 7 2 16 -1 19 -3 4 -6 -2 -5 -13z"/>
<path d="M3257 1613 c-10 -9 -9 -23 2 -23 5 0 11 7 15 15 5 15 -5 20 -17 8z"/>
<path d="M3295 1611 c-3 -5 -1 -12 5 -16 12 -7 30 2 30 16 0 12 -27 12 -35 0z"/>
<path d="M260 3760 c0 -5 14 -10 30 -10 17 0 30 5 30 10 0 6 -13 10 -30 10
-16 0 -30 -4 -30 -10z"/>
<path d="M4290 1100 c0 -5 3 -10 8 -11 16 -2 48 -8 72 -13 21 -6 22 -5 5 3
l-20 10 20 1 20 1 -20 9 c-28 12 -85 12 -85 0z"/>
<path d="M2058 811 c1 -135 5 -253 9 -261 8 -18 25 181 26 295 0 48 -8 106
-19 146 l-19 67 3 -247z"/>
<path d="M4295 1030 c3 -5 11 -10 16 -10 6 0 7 5 4 10 -3 6 -11 10 -16 10 -6
0 -7 -4 -4 -10z"/>
<path d="M4260 960 c0 -5 4 -10 9 -10 6 0 13 5 16 10 3 6 -1 10 -9 10 -9 0
-16 -4 -16 -10z"/>
<path d="M4291 893 c18 -97 59 -172 59 -108 0 29 -49 155 -60 155 -4 0 -3 -21
1 -47z"/>
<path d="M3490 881 c0 -5 7 -12 16 -15 14 -5 15 -4 4 9 -14 17 -20 19 -20 6z"/>
<path d="M3737 854 c-9 -10 2 -24 18 -24 9 0 12 6 9 15 -6 16 -17 19 -27 9z"/>
<path d="M3651 809 c-32 -26 -24 -29 18 -9 23 11 29 19 20 22 -8 3 -25 -3 -38
-13z"/>
<path d="M3395 740 c3 -5 8 -10 11 -10 2 0 4 5 4 10 0 6 -5 10 -11 10 -5 0 -7
-4 -4 -10z"/>
<path d="M1899 630 c-2 -25 -3 -58 -3 -75 0 -16 -5 -33 -10 -37 -6 -4 -9 -25
-7 -46 3 -44 -17 -162 -29 -176 -5 -4 -15 5 -23 21 -9 16 -23 35 -31 42 -9 8
-16 24 -16 36 0 30 -27 40 -40 15 -5 -10 -10 -37 -10 -58 0 -33 3 -39 18 -36
29 7 82 -32 82 -61 0 -33 22 -32 37 3 43 98 53 125 52 145 0 12 0 67 1 122 1
55 -3 111 -9 125 -9 23 -10 21 -12 -20z"/>
<path d="M2106 609 c-13 -36 -23 -100 -16 -104 8 -5 33 105 25 113 -2 3 -7 -1
-9 -9z"/>
<path d="M2738 512 c4 -109 20 -161 56 -191 9 -8 16 -20 16 -27 0 -8 5 -14 10
-14 15 0 12 80 -5 147 -8 32 -30 88 -48 125 l-32 66 3 -106z"/>
<path d="M2647 573 c-10 -9 -9 -41 2 -47 4 -3 8 8 7 24 -1 17 -1 30 -2 30 0 0
-4 -3 -7 -7z"/>
<path d="M1497 530 c-4 -15 0 -20 14 -20 23 0 24 7 5 25 -12 12 -15 11 -19 -5z"/>
<path d="M1780 540 c-24 -8 -24 -8 5 -8 17 0 39 3 50 8 18 8 18 9 -5 8 -14 0
-36 -4 -50 -8z"/>
<path d="M1568 523 c7 -3 16 -2 19 1 4 3 -2 6 -13 5 -11 0 -14 -3 -6 -6z"/>
<path d="M1658 523 c7 -3 16 -2 19 1 4 3 -2 6 -13 5 -11 0 -14 -3 -6 -6z"/>
<path d="M1626 493 c-6 -14 -5 -15 5 -6 7 7 10 15 7 18 -3 3 -9 -2 -12 -12z"/>
<path d="M1660 500 c0 -5 5 -10 10 -10 6 0 10 5 10 10 0 6 -4 10 -10 10 -5 0
-10 -4 -10 -10z"/>
<path d="M1710 500 c0 -5 7 -10 15 -10 8 0 15 5 15 10 0 6 -7 10 -15 10 -8 0
-15 -4 -15 -10z"/>
<path d="M1507 484 c3 -7 9 -14 14 -14 14 0 10 17 -5 23 -10 4 -13 1 -9 -9z"/>
<path d="M3390 481 c0 -5 13 -23 29 -40 33 -35 59 -112 71 -206 8 -64 63 -228
78 -233 13 -4 23 41 12 52 -6 6 -10 23 -10 38 0 51 -87 294 -122 342 -32 44
-58 64 -58 47z"/>
<path d="M1770 464 c0 -8 5 -12 10 -9 6 4 8 11 5 16 -9 14 -15 11 -15 -7z"/>
<path d="M3370 412 c0 -10 11 -29 25 -42 14 -13 25 -28 25 -34 0 -15 40 -79
46 -74 6 7 -16 55 -55 116 -36 57 -41 61 -41 34z"/>
<path d="M3502 370 c9 -27 28 -50 28 -35 0 9 -30 65 -35 65 -2 0 1 -14 7 -30z"/>
<path d="M2561 340 c-1 -19 -14 -102 -30 -185 -16 -82 -28 -152 -26 -154 2 -2
11 -1 20 2 9 4 15 19 15 40 0 18 9 83 20 145 15 80 18 121 11 149 l-9 38 -1
-35z"/>
<path d="M3031 354 c0 -11 3 -14 6 -6 3 7 2 16 -1 19 -3 4 -6 -2 -5 -13z"/>
<path d="M2720 340 c0 -19 3 -21 12 -12 9 9 9 15 0 24 -9 9 -12 7 -12 -12z"/>
<path d="M3393 299 c3 -20 24 -96 48 -168 35 -109 45 -131 62 -131 17 0 19 5
13 41 -4 23 -24 78 -45 123 -21 44 -44 97 -51 116 -20 52 -34 62 -27 19z"/>
<path d="M2668 260 c-4 -25 -8 -54 -10 -65 -2 -11 -9 -25 -17 -31 -8 -6 -11
-16 -7 -22 4 -7 2 -12 -3 -12 -6 0 -11 7 -11 16 0 13 -3 14 -14 5 -16 -13 -32
2 -21 19 3 6 1 10 -6 10 -8 0 -9 -11 -4 -37 4 -21 8 -60 10 -88 1 -43 5 -50
23 -53 17 -3 22 2 23 20 0 22 1 22 9 3 7 -16 9 -12 11 20 1 22 1 48 1 58 -1
10 2 15 8 12 6 -3 7 1 4 10 -4 9 -1 33 5 53 7 20 11 57 9 82 l-3 45 -7 -45z"/>
<path d="M1721 273 c8 -10 16 -20 19 -23 3 -3 12 -14 20 -24 14 -18 13 -19
-18 -14 -28 4 -32 2 -32 -19 0 -14 5 -33 10 -43 7 -13 7 -21 0 -25 -6 -4 -8
-10 -5 -15 12 -19 -14 -18 -50 1 l-38 20 32 -38 c36 -44 39 -57 11 -50 -11 3
-20 3 -20 1 0 -15 45 -44 68 -43 15 0 21 3 15 6 -28 11 -13 33 22 33 39 0 43
-6 18 -26 -15 -12 -4 -13 82 -11 71 1 100 6 101 15 1 6 2 16 3 21 0 6 16 12
34 14 l32 4 -37 1 c-37 2 -57 15 -38 27 5 3 10 1 10 -4 0 -6 4 -11 9 -11 5 0
8 6 7 12 -7 37 -19 58 -36 58 -23 0 -90 61 -72 67 20 8 13 25 -8 18 -22 -7
-67 14 -94 44 -11 12 -28 21 -39 21 -17 0 -18 -2 -6 -17z m209 -185 c0 -16 -3
-16 -20 -6 -11 7 -20 16 -20 20 0 4 9 6 20 5 12 -1 20 -8 20 -19z"/>
<path d="M2776 278 c-14 -52 -43 -252 -38 -267 2 -6 18 -11 36 -11 l33 0 7
102 c3 62 2 118 -4 140 -11 40 -28 58 -34 36z"/>
<path d="M2106 265 c-11 -30 -6 -40 18 -40 24 0 24 4 -2 43 -7 11 -10 10 -16
-3z"/>
<path d="M2074 245 c3 -21 16 -31 16 -12 0 9 -4 18 -9 21 -5 4 -8 -1 -7 -9z"/>
<path d="M3647 243 c-11 -20 -16 -63 -8 -63 5 0 11 16 13 35 4 35 3 42 -5 28z"/>
<path d="M4281 200 c0 -30 4 -62 9 -70 12 -19 13 27 1 85 l-9 40 -1 -55z"/>
<path d="M2712 200 c0 -14 2 -19 5 -12 2 6 2 18 0 25 -3 6 -5 1 -5 -13z"/>
<path d="M3679 173 c-1 -4 -1 -17 0 -28 2 -15 0 -17 -7 -6 -14 20 -29 -14 -27
-59 3 -76 5 -80 25 -80 16 0 20 7 21 38 1 20 3 58 5 84 2 26 0 50 -6 53 -5 3
-11 3 -11 -2z"/>
<path d="M3953 164 c-10 -26 -8 -81 4 -96 6 -7 13 -25 17 -40 4 -19 13 -28 26
-28 11 0 20 5 20 11 0 23 -24 102 -41 136 -16 31 -19 34 -26 17z"/>
<path d="M4231 130 c0 -25 4 -63 8 -85 l7 -40 6 59 c3 40 0 68 -8 85 -13 25
-14 25 -13 -19z"/>
<path d="M1516 107 c3 -10 9 -15 12 -12 3 3 0 11 -7 18 -10 9 -11 8 -5 -6z"/>
<path d="M2679 45 c-6 -40 -4 -53 7 -43 3 3 4 23 2 44 l-3 39 -6 -40z"/>
<path d="M3420 53 c0 -28 10 -53 21 -53 11 0 1 50 -12 65 -5 5 -9 0 -9 -12z"/>
<path d="M4324 45 c-4 -8 -4 -22 0 -30 6 -17 26 -20 26 -4 0 5 5 7 10 4 17
-10 11 4 -10 25 -17 17 -21 18 -26 5z"/>
<path d="M1976 21 c-4 -7 -5 -15 -2 -18 9 -9 19 4 14 18 -4 11 -6 11 -12 0z"/>
<path d="M2070 15 c-14 -8 -20 -14 -14 -15 5 0 19 7 30 15 24 18 16 19 -16 0z"/>
<path d="M3700 15 c0 -8 5 -15 10 -15 6 0 10 7 10 15 0 8 -4 15 -10 15 -5 0
-10 -7 -10 -15z"/>
</g>
</svg>
