<?xml version="1.0" standalone="no"?>
<!DOCTYPE svg PUBLIC "-//W3C//DTD SVG 20010904//EN"
 "http://www.w3.org/TR/2001/REC-SVG-20010904/DTD/svg10.dtd">
<svg version="1.0" xmlns="http://www.w3.org/2000/svg"
 width="290.000000pt" height="363.000000pt" viewBox="0 0 290.000000 363.000000"
 preserveAspectRatio="xMidYMid meet">

<g transform="translate(0.000000,363.000000) scale(0.100000,-0.100000)"
fill="#000000" stroke="none">
<path d="M1511 3414 c0 -11 3 -14 6 -6 3 7 2 16 -1 19 -3 4 -6 -2 -5 -13z"/>
<path d="M1542 3386 c1 -52 8 -53 15 -3 2 19 0 38 -6 42 -8 4 -11 -9 -9 -39z"/>
<path d="M1491 3384 c0 -11 3 -14 6 -6 3 7 2 16 -1 19 -3 4 -6 -2 -5 -13z"/>
<path d="M1500 3351 c0 -5 5 -13 10 -16 6 -3 10 -2 10 4 0 5 -4 13 -10 16 -5
3 -10 2 -10 -4z"/>
<path d="M1946 3311 c-4 -7 -5 -15 -2 -18 9 -9 19 4 14 18 -4 11 -6 11 -12 0z"/>
<path d="M1972 3285 c-14 -31 -15 -35 -3 -35 9 0 25 49 18 56 -2 2 -9 -7 -15
-21z"/>
<path d="M2006 3285 c4 -8 1 -22 -6 -30 -17 -20 -50 -19 -50 2 0 9 -3 14 -6
10 -4 -3 -4 -17 0 -31 4 -18 11 -23 26 -19 10 3 24 11 30 18 6 8 19 11 28 8
13 -4 14 -3 4 5 -11 7 -10 10 3 16 14 5 15 9 5 21 -16 20 -41 20 -34 0z"/>
<path d="M2080 3246 c0 -2 9 -6 20 -9 11 -3 18 -1 14 4 -5 9 -34 13 -34 5z"/>
<path d="M1165 3230 c3 -5 8 -10 11 -10 2 0 4 5 4 10 0 6 -5 10 -11 10 -5 0
-7 -4 -4 -10z"/>
<path d="M1140 3173 c0 -13 27 -49 33 -43 3 3 -3 16 -14 29 -10 13 -19 19 -19
14z"/>
<path d="M1081 3074 c0 -11 3 -14 6 -6 3 7 2 16 -1 19 -3 4 -6 -2 -5 -13z"/>
<path d="M1539 3078 c-5 -17 -4 -48 3 -48 4 0 7 11 6 25 -2 21 -6 31 -9 23z"/>
<path d="M1072 3030 c0 -14 2 -19 5 -12 2 6 2 18 0 25 -3 6 -5 1 -5 -13z"/>
<path d="M1532 2990 c0 -14 2 -19 5 -12 2 6 2 18 0 25 -3 6 -5 1 -5 -13z"/>
<path d="M2326 2948 c-18 -25 -22 -53 -6 -43 6 3 10 3 10 -2 0 -4 12 -14 27
-20 23 -11 28 -10 38 5 17 23 18 37 3 37 -7 0 -12 8 -12 18 2 15 -2 14 -28 -5
l-30 -21 12 22 c16 31 6 38 -14 9z"/>
<path d="M1521 2933 c0 -6 -4 -20 -7 -30 -5 -14 -4 -15 5 -7 7 7 11 20 8 30
-3 11 -5 14 -6 7z"/>
<path d="M1946 2931 c-3 -5 1 -15 10 -22 12 -10 15 -10 12 2 -2 10 5 13 22 11
20 -2 22 -1 10 7 -19 13 -47 14 -54 2z"/>
<path d="M2425 2870 c18 -8 18 -9 2 -9 -10 -1 -16 -5 -13 -10 3 -5 -1 -11 -9
-15 -8 -3 -15 -1 -15 4 0 6 -9 10 -20 10 -11 0 -20 -4 -20 -10 0 -15 -19 -12
-36 5 -18 17 -34 20 -34 4 0 -5 4 -8 9 -4 5 3 13 0 16 -6 5 -7 -1 -10 -16 -9
-39 3 -51 1 -44 -10 4 -6 15 -8 26 -5 11 4 19 2 19 -5 0 -8 -10 -10 -25 -8
-14 3 -25 1 -25 -6 0 -6 -5 -4 -10 4 -9 13 -14 11 -35 -13 -14 -16 -23 -32
-20 -37 6 -9 -25 -19 -43 -12 -9 3 -10 7 -2 17 8 9 8 15 0 20 -5 3 -10 -1 -10
-9 0 -21 -21 -31 -31 -15 -7 11 -9 10 -9 -4 0 -10 -4 -15 -10 -12 -5 3 -10 1
-10 -5 0 -6 8 -9 18 -6 9 3 40 2 69 -3 35 -5 56 -4 64 3 9 8 10 8 5 -1 -3 -6
0 -14 6 -16 8 -3 6 -6 -5 -6 -10 -1 -15 -6 -12 -12 5 -7 16 -3 31 12 28 26 23
39 -17 39 -23 0 -28 4 -26 20 5 29 17 37 17 11 0 -12 4 -19 10 -16 6 4 8 10 6
14 -3 4 0 8 7 9 33 3 51 10 62 25 18 25 32 21 38 -10 7 -35 -19 -81 -36 -64
-16 16 -26 13 -23 -6 2 -10 -1 -21 -6 -24 -5 -3 -3 -9 6 -12 11 -5 16 0 16 14
0 12 4 17 11 13 6 -3 14 -1 18 5 8 13 41 4 41 -10 0 -5 -7 -9 -15 -9 -8 0 -15
-6 -15 -13 0 -21 -34 -35 -78 -30 -27 2 -42 0 -42 -7 0 -7 14 -10 37 -8 22 2
38 -2 41 -10 2 -7 -2 -10 -10 -7 -8 3 -15 0 -15 -7 0 -7 12 -13 26 -13 22 0
26 4 25 25 -1 24 32 60 54 60 6 0 8 9 5 20 -3 12 0 20 6 20 7 0 9 5 6 10 -3 6
-16 10 -27 10 -20 0 -21 1 -3 20 10 11 24 20 31 20 7 0 11 -8 9 -20 -2 -13 2
-20 11 -20 8 0 13 -4 10 -9 -4 -5 3 -7 14 -4 11 3 20 10 20 15 0 5 -5 6 -12 2
-7 -4 -8 -3 -4 4 11 18 47 15 40 -3 -4 -10 0 -15 11 -15 12 0 15 5 11 18 -4
10 1 7 13 -8 11 -13 17 -28 15 -32 -3 -4 3 -8 13 -9 13 0 14 -2 4 -6 -8 -3
-19 1 -26 10 -7 11 -16 13 -26 6 -11 -7 -11 -9 4 -9 10 0 15 -4 12 -10 -3 -5
2 -10 12 -10 15 0 16 -2 3 -10 -13 -8 -12 -10 3 -10 10 0 15 -4 12 -10 -3 -5
3 -10 15 -10 12 0 19 -4 15 -9 -3 -5 3 -12 12 -14 14 -4 13 -5 -4 -6 -25 -1
-32 -21 -9 -21 8 0 18 -5 22 -12 4 -7 3 -8 -4 -4 -7 4 -12 2 -12 -3 0 -6 6
-11 14 -11 9 0 14 -9 13 -20 -1 -11 -5 -20 -10 -20 -4 0 -7 -6 -6 -12 4 -33
-2 -40 -26 -36 -28 6 -29 4 -15 -23 8 -15 7 -19 -5 -19 -8 0 -14 6 -13 13 4
15 -121 15 -131 -1 -4 -6 -24 -12 -46 -14 -22 -2 -43 -7 -46 -12 -4 -4 -20 -9
-37 -9 -20 -1 -28 -6 -25 -15 3 -8 13 -10 27 -6 34 10 41 10 39 -3 -2 -7 3
-10 11 -7 8 3 17 0 22 -7 5 -8 3 -10 -7 -4 -12 7 -12 6 -1 -6 11 -12 15 -11
27 5 13 18 14 17 12 -9 -1 -18 3 -29 13 -30 8 -2 26 -4 39 -6 13 -2 26 1 28 8
5 15 -37 54 -50 46 -6 -3 -7 -1 -3 5 9 14 37 4 54 -20 7 -10 22 -18 33 -18 12
0 19 -7 20 -20 3 -37 4 -40 28 -56 23 -16 23 -16 11 6 -8 15 -8 20 -1 16 6 -4
11 -1 11 6 0 8 3 9 8 3 11 -16 30 -16 36 1 3 9 2 12 -5 9 -6 -4 -13 2 -16 14
-3 11 -9 18 -14 15 -5 -3 -7 -9 -4 -14 2 -4 -7 -10 -21 -13 -19 -3 -24 -1 -22
12 2 9 9 17 16 17 25 3 27 5 13 13 -8 5 -25 7 -38 5 -12 -2 -23 0 -23 6 0 5
12 10 28 11 15 1 46 2 70 3 48 2 52 -1 20 -14 -21 -8 -21 -9 7 -9 29 -1 31 1
32 41 1 24 -4 53 -12 65 -10 14 -15 47 -15 89 0 69 -17 144 -32 144 -5 0 -6 4
-3 10 3 5 -2 22 -11 37 -28 45 -122 133 -142 132 -14 0 -14 -2 3 -9z m46 -50
c5 0 9 -5 9 -11 0 -5 -5 -7 -11 -3 -7 4 -26 7 -43 7 -26 -1 -28 0 -11 7 11 5
26 7 33 4 8 -2 18 -4 23 -4z m-86 -9 c3 -6 -4 -9 -15 -8 -11 1 -20 5 -20 9 0
11 28 10 35 -1z m72 -27 c-3 -3 -12 -4 -19 -1 -8 3 -5 6 6 6 11 1 17 -2 13 -5z
m17 -350 c3 -8 0 -14 -5 -14 -6 0 -9 -9 -6 -20 3 -11 1 -17 -4 -14 -6 3 -9 15
-7 27 2 12 -3 22 -9 23 -7 1 -18 2 -24 3 -5 0 -8 5 -5 10 8 12 54 1 60 -15z
m-90 -17 c-3 -8 -11 -14 -19 -14 -18 0 -20 13 -2 20 21 9 27 7 21 -6z m182 -5
c2 -8 0 -8 -3 -2 -3 7 -10 5 -17 -5 -11 -15 -13 -16 -25 -1 -12 14 -12 16 3
10 9 -4 16 -1 16 6 0 15 23 8 26 -8z"/>
<path d="M2050 2850 c-13 -9 -13 -10 0 -11 10 0 8 -3 -5 -9 -19 -8 -19 -9 3
-9 16 -1 22 5 22 19 0 23 0 23 -20 10z"/>
<path d="M2082 2840 c0 -14 2 -19 5 -12 2 6 2 18 0 25 -3 6 -5 1 -5 -13z"/>
<path d="M1500 2840 c0 -5 -8 -7 -17 -4 -15 5 -15 4 -4 -4 10 -7 12 -14 5 -24
-6 -7 -11 -23 -12 -36 -1 -32 -62 -122 -83 -122 -9 0 -19 -7 -23 -15 -3 -8
-13 -15 -22 -15 -13 0 -14 3 -5 13 8 10 7 14 -4 14 -8 0 -16 -7 -17 -16 -1 -9
-2 -23 -3 -31 -5 -44 -18 -80 -27 -74 -7 5 -8 2 -2 -7 4 -8 10 -22 11 -32 2
-10 11 -34 22 -55 10 -20 24 -55 31 -77 7 -22 16 -44 20 -50 4 -5 13 -28 20
-51 9 -31 25 -49 66 -79 30 -22 54 -43 54 -47 0 -4 7 -8 15 -8 8 0 15 -4 15
-9 0 -6 13 -18 29 -27 17 -10 28 -21 26 -25 -7 -11 48 -29 78 -25 28 3 50 16
28 16 -7 0 -9 5 -6 10 9 15 42 12 49 -5 3 -8 10 -15 15 -15 16 0 17 34 1 53
-15 18 -35 24 -25 7 3 -5 1 -10 -4 -10 -6 0 -11 8 -11 18 0 12 8 17 25 17 14
0 25 -4 25 -10 0 -5 4 -4 9 4 5 8 18 12 31 8 16 -4 20 -2 16 10 -3 8 -6 17 -6
19 0 2 -8 4 -17 4 -15 0 -16 -2 -3 -10 8 -5 10 -10 4 -10 -6 0 -17 7 -24 15
-11 13 -16 13 -40 -2 -18 -10 -34 -13 -46 -8 -11 5 -21 9 -24 9 -3 1 -14 7
-25 13 -19 12 -18 12 7 13 15 0 33 9 41 20 9 14 21 18 33 14 18 -5 18 -5 1 6
-14 9 -22 9 -33 -1 -13 -10 -13 -8 -4 15 6 18 6 25 0 21 -6 -3 -10 -1 -10 5 0
6 -12 10 -27 9 -33 -3 -73 9 -73 22 0 12 17 12 22 -1 2 -6 9 -6 18 0 13 8 12
11 -5 24 -20 15 -19 15 5 16 l25 1 -26 14 c-18 9 -25 21 -24 37 1 13 8 22 14
20 6 -1 11 5 11 13 0 8 5 15 11 15 5 0 7 4 4 10 -3 5 0 8 7 5 24 -9 39 10 29
36 l-10 24 0 -23 c-1 -13 -5 -21 -10 -18 -5 4 -31 8 -58 11 -32 3 -43 1 -33
-5 11 -7 11 -10 2 -10 -7 0 -10 -4 -7 -10 3 -5 1 -10 -4 -10 -10 0 -15 14 -12
33 1 5 -3 6 -9 2 -5 -3 -18 -1 -27 4 -17 10 -16 10 2 11 11 0 27 5 35 10 11 7
5 8 -19 4 -32 -7 -33 -6 -21 15 6 12 21 26 33 31 12 5 18 9 14 9 -5 1 -2 7 5
14 7 8 32 34 55 59 23 26 50 45 60 45 12 -2 17 4 15 16 -3 17 11 47 53 110 32
50 9 27 -35 -33 -40 -56 -46 -60 -84 -61 l-41 -2 35 -6 35 -6 -57 -59 c-36
-37 -61 -55 -69 -51 -8 5 -10 4 -5 -3 4 -7 1 -12 -7 -12 -11 0 -14 10 -13 31
2 27 1 29 -10 14 -9 -11 -14 -13 -19 -4 -4 6 -1 15 6 20 11 7 10 9 -3 9 -10 0
-18 5 -18 11 0 5 -4 8 -9 4 -5 -3 5 26 22 65 24 53 37 70 52 70 11 0 16 -4 10
-8 -24 -17 -14 -30 16 -22 36 11 62 3 55 -16 -7 -18 6 -25 24 -13 13 8 12 11
-4 20 -10 6 -25 19 -34 30 -15 17 -16 17 -29 1 -12 -16 -13 -16 -7 1 4 11 1
17 -9 17 -16 0 -30 27 -21 41 3 5 0 9 -5 9 -6 0 -11 -4 -11 -10z m-125 -250
c-3 -5 -16 -10 -28 -9 -20 1 -20 2 3 9 14 4 26 8 28 9 2 1 0 -3 -3 -9z m99
-23 c16 -12 16 -15 4 -19 -17 -7 -32 1 -35 20 -4 16 9 15 31 -1z m104 -194
c-1 -10 2 -24 6 -32 7 -11 5 -13 -7 -8 -10 4 -20 0 -26 -11 -6 -9 -11 -12 -11
-6 0 5 6 16 13 23 10 11 10 14 0 18 -7 3 -13 9 -13 14 0 4 7 6 15 3 8 -4 15
-1 15 5 0 6 3 11 6 11 3 0 4 -8 2 -17z m-15 -80 c-7 -2 -19 -2 -25 0 -7 3 -2
5 12 5 14 0 19 -2 13 -5z m-8 -23 c3 -5 1 -10 -4 -10 -6 0 -11 5 -11 10 0 6 2
10 4 10 3 0 8 -4 11 -10z m125 -30 c0 -4 -15 -6 -34 -6 -19 1 -33 4 -31 7 5 8
65 7 65 -1z m20 -125 c0 -8 -4 -15 -10 -15 -5 0 -7 7 -4 15 4 8 8 15 10 15 2
0 4 -7 4 -15z m-30 -55 c12 -8 11 -10 -7 -10 -13 0 -23 5 -23 10 0 13 11 13
30 0z"/>
<path d="M1321 2794 c0 -11 3 -14 6 -6 3 7 2 16 -1 19 -3 4 -6 -2 -5 -13z"/>
<path d="M2060 2780 c0 -5 5 -10 11 -10 5 0 7 5 4 10 -3 6 -8 10 -11 10 -2 0
-4 -4 -4 -10z"/>
<path d="M1660 2770 c-9 -6 -10 -10 -3 -10 6 0 15 5 18 10 8 12 4 12 -15 0z"/>
<path d="M2252 2764 c-9 -10 -5 -12 23 -11 18 2 38 7 42 11 4 5 0 6 -9 3 -10
-4 -18 -3 -18 2 0 12 -25 9 -38 -5z"/>
<path d="M2370 2770 c0 -5 5 -10 11 -10 5 0 7 5 4 10 -3 6 -8 10 -11 10 -2 0
-4 -4 -4 -10z"/>
<path d="M1024 2713 c-7 -27 4 -54 25 -61 9 -3 8 4 -3 26 -9 17 -13 38 -10 46
3 9 3 16 0 16 -3 0 -9 -12 -12 -27z"/>
<path d="M1548 2733 c6 -2 18 -2 25 0 6 3 1 5 -13 5 -14 0 -19 -2 -12 -5z"/>
<path d="M2020 2728 c0 -4 4 -8 9 -8 6 0 12 4 15 8 3 5 -1 9 -9 9 -8 0 -15 -4
-15 -9z"/>
<path d="M2428 2693 c6 -2 18 -2 25 0 6 3 1 5 -13 5 -14 0 -19 -2 -12 -5z"/>
<path d="M2475 2690 c3 -5 8 -10 11 -10 2 0 4 5 4 10 0 6 -5 10 -11 10 -5 0
-7 -4 -4 -10z"/>
<path d="M2425 2670 c-3 -5 -12 -7 -20 -4 -9 4 -18 -2 -23 -17 -7 -19 -10 -20
-15 -6 -4 10 -11 17 -16 17 -6 0 -8 -7 -5 -15 5 -11 2 -13 -10 -9 -9 3 -16 1
-16 -5 0 -6 14 -11 30 -11 17 0 29 -4 28 -9 -2 -5 1 -9 6 -9 5 0 12 -5 16 -11
10 -17 50 -22 73 -10 15 9 17 13 6 19 -7 5 -16 7 -19 5 -3 -1 -12 4 -20 13
-13 14 -12 15 5 8 11 -4 25 -9 30 -10 18 -3 50 -25 38 -26 -18 0 -16 -20 1
-20 8 0 17 11 20 25 9 36 9 39 -3 43 -6 2 -8 -3 -5 -12 3 -9 2 -16 -4 -16 -5
0 -13 7 -16 16 -5 12 -10 13 -19 6 -8 -7 -18 -7 -27 -2 -8 5 -24 7 -36 4 -14
-4 -23 0 -28 11 -4 13 -2 16 9 12 8 -4 17 -2 20 3 3 5 13 6 22 3 11 -4 14 -3
9 5 -9 14 -23 15 -31 2z m5 -81 c0 -6 -4 -7 -10 -4 -5 3 -10 11 -10 16 0 6 5
7 10 4 6 -3 10 -11 10 -16z"/>
<path d="M2198 2623 c7 -3 16 -2 19 1 4 3 -2 6 -13 5 -11 0 -14 -3 -6 -6z"/>
<path d="M2337 2603 c-4 -3 -7 -11 -7 -17 0 -6 5 -5 12 2 6 6 9 14 7 17 -3 3
-9 2 -12 -2z"/>
<path d="M2185 2590 c-3 -6 1 -7 9 -4 18 7 21 14 7 14 -6 0 -13 -4 -16 -10z"/>
<path d="M1837 2570 c-14 -11 -30 -20 -36 -20 -6 0 -11 -4 -11 -10 0 -15 7
-13 43 12 18 13 34 24 36 25 2 2 2 5 -1 8 -3 3 -16 -4 -31 -15z"/>
<path d="M2258 2576 c-10 -7 -18 -17 -18 -21 0 -4 6 -2 13 4 8 6 18 7 22 3 5
-4 5 -2 2 5 -4 6 -1 14 5 16 7 3 9 6 3 6 -5 0 -18 -6 -27 -13z"/>
<path d="M2298 2573 c-7 -26 8 -41 25 -24 8 8 8 11 0 11 -6 0 -13 8 -15 18 -3
14 -5 13 -10 -5z"/>
<path d="M2345 2569 c-11 -16 -1 -19 13 -3 7 8 8 14 3 14 -5 0 -13 -5 -16 -11z"/>
<path d="M2480 2572 c0 -12 19 -26 26 -19 2 2 -2 10 -11 17 -9 8 -15 8 -15 2z"/>
<path d="M2195 2560 c3 -5 8 -10 11 -10 2 0 4 5 4 10 0 6 -5 10 -11 10 -5 0
-7 -4 -4 -10z"/>
<path d="M2387 2563 c-12 -11 -7 -24 6 -17 8 5 8 2 -2 -9 -16 -20 -9 -22 19
-4 17 10 22 9 30 -3 7 -11 4 -17 -10 -22 -11 -4 -20 -10 -20 -13 0 -4 5 -3 10
0 6 3 10 1 10 -4 0 -6 12 -11 28 -11 22 0 27 4 27 25 0 16 -5 23 -12 21 -7 -3
-19 4 -27 16 -8 11 -19 17 -25 13 -6 -3 -11 -1 -11 4 0 12 -13 14 -23 4z"/>
<path d="M2255 2532 c-12 -12 -4 -20 15 -15 11 3 20 9 20 12 0 9 -27 10 -35 3z"/>
<path d="M2346 2525 c-3 -8 -1 -15 4 -15 13 0 22 18 11 24 -5 3 -11 -1 -15 -9z"/>
<path d="M2502 2521 c2 -7 7 -12 11 -12 12 1 9 15 -3 20 -7 2 -11 -2 -8 -8z"/>
<path d="M2550 2520 c-13 -8 -12 -10 3 -10 9 0 17 5 17 10 0 12 -1 12 -20 0z"/>
<path d="M1723 2508 c1 -7 -3 -12 -10 -13 -7 0 -18 -6 -24 -12 -23 -23 8 -15
47 12 36 24 36 25 10 25 -15 0 -25 -5 -23 -12z"/>
<path d="M2307 2513 c-12 -12 -7 -23 11 -23 13 0 14 2 3 9 -11 7 -11 9 0 14 8
3 9 6 3 6 -6 1 -14 -2 -17 -6z"/>
<path d="M2370 2502 c0 -5 7 -16 16 -23 14 -12 16 -11 13 5 -4 20 -29 35 -29
18z"/>
<path d="M1610 2490 c0 -5 5 -10 10 -10 6 0 10 5 10 10 0 6 -4 10 -10 10 -5 0
-10 -4 -10 -10z"/>
<path d="M2349 2484 c6 -3 7 -12 4 -20 -3 -8 -1 -14 5 -14 14 0 8 33 -7 36 -6
1 -7 0 -2 -2z"/>
<path d="M2265 2459 c-4 -6 -5 -12 -2 -15 2 -3 7 2 10 11 7 17 1 20 -8 4z"/>
<path d="M1808 2453 c6 -2 18 -2 25 0 6 3 1 5 -13 5 -14 0 -19 -2 -12 -5z"/>
<path d="M986 2417 c3 -10 9 -15 12 -12 3 3 0 11 -7 18 -10 9 -11 8 -5 -6z"/>
<path d="M2173 2405 c0 -10 10 -15 31 -14 17 0 25 3 18 6 -6 2 -10 9 -6 14 3
5 -2 9 -11 9 -10 0 -13 -5 -9 -12 6 -10 5 -10 -7 -1 -13 10 -16 10 -16 -2z"/>
<path d="M1613 2370 c2 -8 12 -16 23 -17 13 -2 15 -1 4 4 -8 3 -19 11 -23 17
-6 7 -7 6 -4 -4z"/>
<path d="M2342 2348 c-7 -7 -12 -8 -12 -4 0 5 -7 3 -15 -4 -8 -7 -15 -17 -15
-23 0 -6 6 -2 14 8 13 18 14 17 30 -12 18 -36 44 -58 33 -28 -6 14 -3 16 15
12 13 -2 32 -8 42 -12 12 -6 17 -5 13 2 -4 6 4 9 21 6 24 -4 25 -3 9 7 -10 7
-27 10 -38 7 -10 -3 -22 -1 -25 5 -3 5 -15 8 -25 5 -11 -3 -19 -1 -19 4 0 5
-3 8 -7 8 -20 -3 -24 2 -13 16 15 18 9 20 -8 3z"/>
<path d="M2627 2352 c-14 -3 -16 -7 -6 -18 7 -8 7 -14 1 -14 -5 0 -13 -7 -16
-16 -5 -14 -4 -15 8 -5 17 15 46 4 46 -18 -1 -14 -2 -14 -11 1 -9 16 -12 17
-34 2 -18 -12 -28 -13 -44 -4 -17 9 -20 8 -15 -5 3 -8 10 -12 15 -9 5 3 12 -2
15 -10 9 -23 23 -19 34 9 11 30 25 34 17 5 -4 -17 2 -23 23 -22 3 0 6 -11 6
-24 1 -13 -2 -21 -7 -18 -5 3 -9 0 -9 -6 0 -6 -4 -8 -10 -5 -5 3 -10 1 -10 -4
0 -6 9 -11 19 -11 30 0 33 -27 4 -50 -14 -11 -20 -20 -12 -20 8 0 6 -6 -7 -16
-17 -14 -17 -15 -1 -10 15 5 16 3 6 -15 -12 -24 -7 -36 8 -17 19 24 43 108 43
153 0 42 -24 133 -38 146 -4 3 -15 4 -25 1z"/>
<path d="M1855 2341 c-25 -6 -27 -8 -10 -12 11 -3 31 1 45 8 27 13 14 15 -35
4z"/>
<path d="M1060 2211 c-58 -59 -134 -128 -168 -154 -35 -26 -61 -47 -58 -47 18
0 90 44 115 70 15 17 32 30 36 30 5 0 19 9 31 21 12 11 30 22 40 23 11 2 19 9
19 16 0 7 8 16 18 19 10 4 18 11 18 16 -1 6 5 10 12 10 6 1 11 6 9 13 -1 7 9
25 23 40 14 15 25 30 25 34 0 23 -26 3 -120 -91z"/>
<path d="M1800 2311 c0 -10 19 -25 25 -20 1 2 -3 10 -11 17 -8 7 -14 8 -14 3z"/>
<path d="M1745 2300 c-19 -8 -19 -9 3 -9 12 -1 22 4 22 9 0 6 -1 10 -2 9 -2 0
-12 -4 -23 -9z"/>
<path d="M1672 2291 c-9 -5 -4 -8 16 -7 17 1 28 4 25 9 -6 9 -25 9 -41 -2z"/>
<path d="M2486 2238 c3 -4 12 -8 20 -8 8 0 14 4 14 8 0 4 -9 8 -19 8 -11 0
-17 -4 -15 -8z"/>
<path d="M2540 2240 c-13 -9 -13 -10 0 -10 13 0 13 -1 0 -10 -10 -7 -11 -10
-2 -10 12 0 28 27 20 35 -2 2 -10 0 -18 -5z"/>
<path d="M1751 2235 c0 -5 6 -19 14 -29 8 -11 15 -17 15 -14 0 4 3 14 7 24 5
13 3 16 -10 11 -8 -3 -18 -1 -21 6 -2 7 -5 8 -5 2z"/>
<path d="M1300 2127 c-7 -17 -16 -36 -18 -42 -3 -5 7 4 21 20 15 17 27 25 27
18 0 -7 8 -17 18 -22 14 -8 18 -5 19 11 1 11 -1 17 -4 14 -4 -3 -16 3 -28 14
l-21 20 -14 -33z"/>
<path d="M2645 2150 c-3 -5 -2 -10 4 -10 5 0 13 5 16 10 3 6 2 10 -4 10 -5 0
-13 -4 -16 -10z"/>
<path d="M2040 2120 c0 -14 -7 -20 -22 -21 -22 -1 -22 -1 2 -9 14 -4 19 -8 11
-9 -8 -1 -11 -4 -8 -7 11 -11 36 17 30 33 -3 8 0 19 8 24 11 7 11 9 -3 9 -11
0 -18 -8 -18 -20z"/>
<path d="M1160 2110 c-8 -5 -12 -12 -9 -15 4 -3 12 1 19 10 14 17 11 19 -10 5z"/>
<path d="M2146 2101 c-4 -5 3 -7 14 -4 23 6 26 13 6 13 -8 0 -17 -4 -20 -9z"/>
<path d="M2388 2093 c7 -3 16 -2 19 1 4 3 -2 6 -13 5 -11 0 -14 -3 -6 -6z"/>
<path d="M2101 2080 c-9 -5 -7 -9 8 -13 12 -3 23 -2 26 3 7 11 -19 20 -34 10z"/>
<path d="M2287 2079 c7 -7 15 -10 18 -7 3 3 -2 9 -12 12 -14 6 -15 5 -6 -5z"/>
<path d="M1955 2070 c3 -5 13 -10 20 -10 9 0 12 -6 9 -15 -5 -11 -2 -13 10 -9
19 7 17 26 -4 36 -23 10 -42 9 -35 -2z"/>
<path d="M2150 2070 c0 -5 5 -10 11 -10 5 0 7 5 4 10 -3 6 -8 10 -11 10 -2 0
-4 -4 -4 -10z"/>
<path d="M1062 2044 c-17 -19 -15 -26 6 -16 9 6 39 10 66 10 27 1 54 6 60 12
8 8 -8 10 -54 9 -39 -1 -70 -7 -78 -15z"/>
<path d="M1933 2053 c-7 -3 -13 -12 -14 -21 0 -11 -2 -12 -6 -4 -2 6 -9 12
-14 12 -5 0 -8 -6 -6 -12 1 -7 -3 -12 -8 -11 -6 1 -11 -7 -11 -18 0 -11 4 -15
9 -10 12 12 37 3 37 -13 0 -17 49 -18 65 -2 21 21 -4 51 -36 43 -23 -6 -23 -5
-5 9 21 15 12 35 -11 27z"/>
<path d="M2031 2051 c-9 -6 -6 -8 13 -8 14 0 23 3 20 8 -7 11 -15 11 -33 0z"/>
<path d="M2368 2053 c7 -3 16 -2 19 1 4 3 -2 6 -13 5 -11 0 -14 -3 -6 -6z"/>
<path d="M934 2020 c8 -36 -37 -80 -81 -80 -9 0 -14 -2 -11 -5 3 -3 -7 -19
-22 -35 -26 -27 -45 -88 -42 -135 4 -88 3 -123 -6 -145 -8 -19 -11 -21 -11 -7
-1 30 -36 16 -37 -15 -1 -37 5 -43 53 -55 39 -10 43 -9 58 14 21 32 16 79 -7
75 -18 -3 -22 9 -18 55 1 12 -3 30 -8 40 -9 16 1 65 26 133 3 8 5 18 4 22 -2
9 57 58 69 58 5 0 23 10 38 21 16 12 33 19 38 16 5 -4 10 0 10 8 0 8 -4 12 -8
9 -4 -2 -17 8 -29 23 l-22 28 6 -25z m-154 -451 c0 -11 -4 -17 -10 -14 -5 3
-10 13 -10 21 0 8 5 14 10 14 6 0 10 -9 10 -21z m60 11 c0 -5 -4 -10 -10 -10
-5 0 -10 5 -10 10 0 6 5 10 10 10 6 0 10 -4 10 -10z"/>
<path d="M2420 2026 c19 -7 44 -17 55 -22 18 -7 18 -6 6 9 -7 9 -17 14 -22 11
-5 -3 -9 0 -9 5 0 6 -15 11 -32 11 l-33 -1 35 -13z"/>
<path d="M1014 2015 c-18 -14 -18 -14 4 -8 12 3 22 9 22 14 0 12 -3 11 -26 -6z"/>
<path d="M2025 2020 c-11 -5 -15 -9 -10 -9 6 -1 3 -6 -5 -11 -12 -8 -12 -10
-1 -10 9 0 7 -6 -7 -19 -28 -24 -28 -41 -1 -36 12 3 19 2 15 -2 -3 -3 -1 -12
5 -20 13 -14 2 -17 -61 -13 -90 6 -129 5 -120 -4 6 -6 38 -11 72 -12 35 -1 71
-5 81 -9 10 -4 17 -3 17 4 0 15 18 14 23 -1 2 -7 3 -5 2 5 -2 9 0 17 5 17 13
0 30 -26 22 -35 -4 -5 -1 -5 6 -1 8 5 23 -1 38 -15 13 -12 24 -17 24 -11 0 7
-4 12 -10 12 -5 0 -9 3 -9 8 3 19 -2 33 -10 27 -6 -3 -15 4 -21 15 -6 11 -17
20 -25 20 -8 0 -15 5 -15 10 0 16 30 24 43 11 17 -17 22 -14 22 13 0 13 -3 22
-6 20 -4 -2 -9 3 -13 11 -3 8 -1 15 4 15 6 0 10 5 10 10 0 7 -6 8 -17 1 -12
-6 -20 -5 -28 4 -6 8 -17 10 -30 5z m10 -68 c-3 -3 -11 0 -18 7 -9 10 -8 11 6
5 10 -3 15 -9 12 -12z"/>
<path d="M2600 2018 c0 -4 -15 -8 -33 -8 -18 0 -41 -6 -51 -13 -17 -13 -17
-14 0 -28 10 -7 15 -9 11 -3 -4 6 9 4 29 -5 31 -13 33 -17 15 -19 -25 -4 -26
-9 -7 -27 11 -12 15 -10 25 11 6 14 9 30 6 35 -4 5 1 9 10 9 12 0 15 5 11 16
-4 9 -2 22 4 29 7 8 5 12 -5 12 -8 0 -15 -4 -15 -9z"/>
<path d="M1530 1985 c0 -8 4 -15 8 -15 5 0 9 7 9 15 0 8 -4 15 -9 15 -4 0 -8
-7 -8 -15z"/>
<path d="M2126 1974 c-18 -25 -18 -25 3 -12 12 7 21 18 21 25 0 18 -2 16 -24
-13z"/>
<path d="M1701 1954 c13 -21 27 -40 31 -42 13 -6 9 -30 -4 -35 -8 -3 -6 -6 5
-6 9 -1 17 -5 17 -11 0 -5 9 -10 21 -10 11 0 17 5 14 10 -3 6 2 10 12 11 11 0
13 3 5 6 -7 3 -20 -1 -29 -9 -10 -7 -14 -8 -10 -1 4 6 1 14 -5 16 -7 3 4 6 25
6 20 1 36 4 35 9 0 4 2 15 6 24 6 14 17 16 46 13 21 -3 42 -1 45 5 4 6 -8 10
-27 11 -32 1 -47 3 -58 8 -3 1 -31 4 -63 6 -32 2 -65 9 -73 16 -9 8 -7 -3 7
-27z m56 -10 c-3 -3 -12 -4 -19 -1 -8 3 -5 6 6 6 11 1 17 -2 13 -5z m63 -14
c0 -5 -9 -10 -21 -10 -11 0 -17 5 -14 10 3 6 13 10 21 10 8 0 14 -4 14 -10z"/>
<path d="M2198 1973 c7 -3 16 -2 19 1 4 3 -2 6 -13 5 -11 0 -14 -3 -6 -6z"/>
<path d="M1569 1959 c-10 -6 -7 -9 14 -9 29 0 35 5 14 13 -8 3 -20 1 -28 -4z"/>
<path d="M1580 1934 c0 -2 9 -8 20 -14 15 -8 18 -8 14 3 -4 11 -34 21 -34 11z"/>
<path d="M1535 1910 c3 -5 8 -10 11 -10 2 0 4 5 4 10 0 6 -5 10 -11 10 -5 0
-7 -4 -4 -10z"/>
<path d="M1655 1910 c3 -5 8 -10 11 -10 2 0 4 5 4 10 0 6 -5 10 -11 10 -5 0
-7 -4 -4 -10z"/>
<path d="M1695 1880 c-3 -5 -1 -10 4 -10 6 0 11 5 11 10 0 6 -2 10 -4 10 -3 0
-8 -4 -11 -10z"/>
<path d="M1950 1870 c-9 -6 -10 -10 -3 -10 6 0 15 5 18 10 8 12 4 12 -15 0z"/>
<path d="M1890 1840 c-12 -8 -10 -10 8 -10 13 0 20 4 17 10 -7 12 -6 12 -25 0z"/>
<path d="M1760 1830 c0 -5 5 -10 11 -10 5 0 7 5 4 10 -3 6 -8 10 -11 10 -2 0
-4 -4 -4 -10z"/>
<path d="M1404 1805 c-17 -13 -17 -14 -1 -15 19 0 23 -15 7 -25 -6 -4 -8 -11
-5 -16 4 -5 20 4 36 21 17 16 28 34 24 40 -9 15 -38 12 -61 -5z"/>
<path d="M2150 1811 c0 -5 5 -13 10 -16 6 -3 10 -2 10 4 0 5 -4 13 -10 16 -5
3 -10 2 -10 -4z"/>
<path d="M1770 1801 c0 -5 5 -13 10 -16 6 -3 10 -2 10 4 0 5 -4 13 -10 16 -5
3 -10 2 -10 -4z"/>
<path d="M1500 1795 c0 -4 6 -13 14 -21 16 -16 40 -19 31 -4 -8 12 -45 33 -45
25z"/>
<path d="M1494 1725 c8 -59 17 -75 27 -49 9 27 0 70 -18 86 -13 11 -14 6 -9
-37z"/>
<path d="M1768 1750 c-10 -9 -15 -20 -11 -23 10 -10 25 -8 18 2 -3 5 -1 12 5
16 5 3 10 -3 10 -14 0 -11 5 -23 12 -27 8 -5 9 -2 5 9 -3 10 -2 17 3 17 5 0
12 -12 16 -27 3 -16 7 -32 8 -38 2 -5 9 1 16 15 9 17 10 25 1 28 -6 2 -11 10
-11 18 0 8 -7 14 -15 14 -8 0 -15 4 -15 9 0 17 -25 18 -42 1z"/>
<path d="M2465 1740 c-19 -8 -19 -9 3 -9 12 -1 22 4 22 9 0 6 -1 10 -2 9 -2 0
-12 -4 -23 -9z"/>
<path d="M1421 1710 c-15 -43 -14 -60 3 -60 16 0 28 58 16 79 -5 9 -11 4 -19
-19z"/>
<path d="M2230 1711 c0 -16 9 -36 21 -47 22 -19 22 -19 14 5 -4 15 -3 21 3 17
12 -7 23 17 14 31 -4 5 -17 12 -29 15 -20 5 -23 2 -23 -21z"/>
<path d="M1905 1690 c3 -5 8 -10 11 -10 2 0 4 5 4 10 0 6 -5 10 -11 10 -5 0
-7 -4 -4 -10z"/>
<path d="M1780 1680 c-9 -6 -10 -10 -3 -10 6 0 15 5 18 10 8 12 4 12 -15 0z"/>
<path d="M2690 1631 c-83 -87 -214 -141 -342 -141 -45 0 -56 -3 -52 -14 8 -20
122 -9 213 21 102 33 188 99 235 181 12 21 3 13 -54 -47z"/>
<path d="M1960 1661 c0 -5 5 -13 10 -16 6 -3 10 -2 10 4 0 5 -4 13 -10 16 -5
3 -10 2 -10 -4z"/>
<path d="M2028 1651 c4 -10 1 -13 -12 -8 -9 4 -15 3 -11 -2 9 -15 86 -24 98
-12 8 8 1 11 -27 11 -30 0 -36 3 -28 13 8 10 6 13 -7 13 -12 0 -17 -5 -13 -15z"/>
<path d="M1358 1653 c7 -3 16 -2 19 1 4 3 -2 6 -13 5 -11 0 -14 -3 -6 -6z"/>
<path d="M1113 1638 c-14 -4 -31 -4 -37 -1 -6 3 -8 3 -4 -2 5 -5 -7 -18 -25
-29 l-32 -20 92 -7 c237 -18 220 -80 -22 -81 -71 0 -137 4 -159 12 -21 6 -40
9 -44 5 -4 -4 -1 -10 6 -12 10 -4 8 -9 -5 -19 -13 -10 -14 -14 -3 -12 8 2 15
-6 16 -18 1 -26 -28 -26 -32 0 -3 23 -23 46 -40 46 -8 0 -14 6 -15 13 0 6 -6
0 -12 -14 -7 -16 -19 -25 -29 -23 -10 1 -18 -3 -18 -10 0 -7 -11 -18 -23 -25
-20 -10 -36 -10 -89 4 -36 9 -69 15 -74 13 -5 -1 -20 4 -33 11 -18 10 -22 10
-16 0 5 -7 1 -17 -9 -25 -16 -11 -13 -15 31 -38 75 -39 32 -30 -75 15 -53 23
-112 48 -130 56 -17 7 -32 10 -32 5 0 -10 85 -52 105 -52 8 0 19 -8 24 -17 6
-10 11 -15 11 -11 0 4 13 2 30 -3 17 -6 27 -16 23 -22 -3 -5 -1 -7 5 -4 12 8
134 -47 125 -57 -3 -3 8 -9 25 -12 18 -4 32 -11 32 -15 0 -12 49 -32 75 -31
11 1 32 -3 48 -9 22 -9 25 -14 16 -25 -9 -11 -8 -14 2 -14 8 0 6 -5 -6 -14
-16 -11 -23 -11 -47 3 -15 9 -26 22 -23 28 3 10 0 10 -16 0 -16 -10 -21 -9
-29 3 -5 8 -10 11 -10 5 0 -5 -7 1 -14 14 -10 18 -23 25 -47 26 -53 2 -94 16
-77 26 9 6 4 9 -17 10 -42 1 -101 24 -97 39 1 6 -2 9 -7 5 -6 -3 -29 3 -53 15
-42 20 -77 28 -46 9 10 -5 15 -16 11 -25 -5 -13 -10 -12 -38 4 l-32 20 3 -122
c2 -66 4 -183 6 -258 1 -75 4 -136 7 -135 4 1 7 -2 8 -8 1 -5 -4 -9 -11 -7 -9
1 -12 -7 -10 -25 3 -30 -21 -77 -35 -68 -15 9 -19 -34 -5 -46 10 -8 14 -8 14
0 0 6 -5 11 -12 11 -8 0 -6 6 4 17 16 15 21 14 75 -19 32 -19 57 -40 56 -46
-2 -6 3 -9 10 -6 7 2 22 -5 34 -16 12 -11 27 -20 32 -20 6 0 14 -6 18 -13 4
-7 25 -21 45 -32 43 -22 45 -26 20 -48 -16 -15 -85 -17 -99 -4 -10 11 8 26 25
20 13 -5 14 -3 6 6 -14 15 -50 10 -47 -7 2 -7 -4 -12 -12 -12 -8 0 -12 6 -9
14 3 8 0 17 -7 22 -8 5 -10 3 -4 -6 4 -7 2 -16 -5 -20 -14 -9 39 -50 69 -53
11 0 17 -6 14 -14 -3 -7 2 -13 11 -13 9 0 16 -5 16 -11 0 -5 5 -7 10 -4 6 3
13 -1 16 -9 3 -9 10 -16 16 -16 5 0 6 5 3 10 -3 6 -1 10 4 10 6 0 11 -7 11
-16 0 -8 6 -21 13 -28 21 -21 77 -47 87 -41 6 3 7 -1 4 -9 -3 -9 -2 -16 4 -16
5 0 29 -16 53 -35 24 -19 50 -35 57 -35 7 0 10 -5 7 -10 -4 -6 8 -16 25 -24
41 -17 113 -6 143 22 13 12 33 22 46 22 12 0 20 3 17 8 -2 4 14 8 36 8 28 1
44 8 54 23 16 22 71 31 58 9 -5 -8 -2 -9 10 -5 10 4 27 7 39 8 21 0 21 1 2 9
-19 9 -19 9 3 16 18 5 21 9 10 16 -8 6 0 7 24 3 33 -5 37 -4 33 15 -5 26 11
17 18 -10 4 -16 0 -20 -18 -20 -13 0 -26 -4 -30 -9 -3 -6 4 -8 17 -5 13 2 39
7 58 10 19 3 40 10 45 16 7 7 3 9 -11 6 -28 -7 -62 11 -43 23 7 4 18 5 24 1
16 -11 75 -8 75 3 0 21 -37 33 -91 28 -29 -3 -66 -5 -81 -5 -19 1 -25 -3 -22
-12 4 -10 -2 -12 -20 -9 -22 4 -23 7 -11 19 7 8 26 16 42 18 15 2 36 7 45 11
9 4 22 3 29 -1 7 -4 9 -3 6 3 -7 11 23 23 60 23 16 0 21 4 17 15 -4 11 1 15
17 15 13 0 49 7 79 15 30 8 69 17 85 20 17 3 44 10 60 14 65 20 123 24 118 10
-1 -3 10 -4 25 -1 l27 6 -25 6 c-21 6 -18 8 22 15 26 4 46 10 44 14 -2 3 11 7
30 8 18 1 67 9 109 18 68 15 75 19 75 41 0 23 10 31 23 17 4 -3 2 -12 -5 -20
-8 -11 -7 -12 5 -7 21 8 29 32 17 52 -5 10 -10 12 -10 5 0 -14 -26 -11 -42 5
-9 9 -9 12 0 12 7 0 12 7 12 15 0 18 -17 20 -22 3 -3 -7 -10 -8 -17 -3 -10 5
-5 12 18 21 35 15 33 34 -2 34 -18 0 -19 2 -7 10 10 6 11 10 3 10 -10 0 -10 6
-1 25 8 19 14 22 20 13 6 -10 8 -10 8 0 0 8 -9 16 -20 19 -11 3 -20 14 -20 24
0 23 15 25 24 4 3 -8 11 -15 17 -15 8 0 9 4 0 13 -6 8 -8 17 -4 20 11 11 12
201 1 214 -5 7 -7 17 -3 23 3 5 1 10 -4 10 -6 0 -11 4 -11 10 0 5 7 7 16 3 13
-5 15 0 11 25 -3 17 0 33 5 34 6 2 3 11 -6 21 -20 20 -85 23 -87 5 -6 -51 -2
-128 5 -128 13 0 -2 -61 -21 -82 -16 -18 -16 -18 0 -12 14 5 17 0 17 -29 0
-25 -5 -37 -17 -40 -17 -4 -17 -5 0 -6 22 -1 23 -21 0 -21 -16 0 -16 -1 0 -12
15 -11 17 -28 14 -118 -3 -83 -6 -105 -18 -105 -8 0 -14 -6 -14 -14 0 -8 -9
-17 -20 -21 -21 -8 -38 -3 -31 9 3 4 -6 8 -20 9 -13 1 -24 -3 -24 -8 0 -5 6
-7 13 -4 8 3 14 -2 14 -11 0 -8 -4 -16 -9 -16 -4 -1 -12 -3 -18 -4 -5 -1 -20
-3 -31 -4 -15 -1 -20 -6 -17 -19 4 -14 -1 -19 -21 -19 -14 0 -50 -3 -78 -5
-34 -3 -53 -1 -53 5 0 6 -7 2 -15 -9 -8 -10 -15 -15 -15 -10 0 5 -7 3 -15 -4
-12 -10 -19 -10 -27 -2 -17 17 -39 15 -53 -5 -7 -9 -21 -17 -31 -18 -11 0 -26
-5 -34 -10 -8 -5 -28 -10 -45 -10 -16 -1 -53 -7 -81 -14 -29 -7 -58 -14 -65
-15 -8 -2 -22 -7 -33 -11 -11 -5 -21 -3 -26 5 -4 7 -12 10 -18 6 -16 -10 -62
59 -62 95 0 18 10 69 22 113 16 62 19 86 11 107 -9 23 -8 28 9 32 14 4 19 12
16 29 -2 16 4 27 21 35 12 7 27 10 32 7 18 -11 44 7 72 49 36 53 98 99 162
122 28 9 58 21 67 26 10 5 23 9 30 8 7 0 4 -4 -7 -9 -17 -8 -16 -9 9 -9 20 -1
27 3 23 13 -3 8 1 20 9 27 12 10 13 9 8 -6 -6 -14 -4 -16 7 -10 12 7 12 6 -1
-11 -8 -10 -10 -16 -6 -12 5 4 15 3 22 -3 17 -14 48 -4 38 12 -4 8 -9 7 -15
-2 -4 -7 -11 -10 -16 -6 -9 9 17 28 29 21 4 -3 8 2 8 10 0 8 9 18 20 21 11 4
18 10 15 15 -3 4 1 12 8 18 8 7 19 5 36 -9 23 -19 20 -22 -21 -22 -10 0 -18
-2 -19 -6 -4 -36 -19 -69 -19 -43 0 7 -5 12 -10 12 -13 0 -9 -21 8 -38 14 -16
6 -35 -11 -26 -7 4 -1 -5 12 -19 14 -15 30 -27 37 -27 7 0 15 -6 18 -12 3 -9
12 -4 28 14 13 15 30 28 38 30 17 3 103 166 94 179 -12 20 -30 6 -52 -41 -13
-28 -39 -66 -58 -86 -27 -27 -34 -39 -28 -57 6 -18 5 -20 -8 -10 -8 7 -17 10
-21 7 -3 -3 -3 4 0 17 4 13 19 34 35 47 30 25 68 90 68 116 0 8 6 17 13 20 6
3 -6 3 -28 1 -22 -2 -40 -4 -40 -5 0 -1 -20 -4 -44 -6 -24 -2 -52 -11 -62 -20
-12 -10 -18 -12 -21 -4 -3 9 -14 9 -41 2 -27 -8 -35 -7 -30 0 4 7 0 9 -10 5
-9 -3 -19 -1 -23 5 -4 6 -3 8 4 4 6 -3 14 -2 17 4 5 8 11 7 22 -1 11 -10 16
-10 22 0 4 7 32 15 62 18 30 3 59 10 64 15 7 7 2 9 -15 5 -25 -6 -193 -21
-197 -19 -7 5 3 17 11 14 5 -2 16 0 25 4 22 10 26 11 124 29 42 8 41 17 -1 22
-21 3 -24 1 -12 -7 11 -7 5 -10 -25 -11 -22 0 -59 -1 -82 -2 -23 -1 -39 1 -35
5 6 6 29 9 154 24 27 3 46 9 44 13 -2 3 14 5 36 2 l41 -3 -32 31 c-18 17 -36
29 -41 26 -4 -3 -46 -7 -92 -9 -52 -3 -70 -1 -48 4 67 14 226 39 293 45 37 4
67 10 67 15 0 4 -9 6 -20 3 -12 -3 -20 0 -20 7 0 10 -4 9 -17 -2 -10 -8 -31
-15 -48 -15 -16 -1 -24 1 -17 4 19 8 14 23 -9 23 -13 0 -18 4 -13 13 5 8 2 8
-9 -2 -11 -8 -17 -9 -17 -3 0 6 -7 9 -15 6 -11 -5 -13 -2 -9 11 6 14 3 16 -14
11 -12 -4 -23 -2 -28 5 -5 8 -3 9 7 4 12 -8 12 -6 0 9 -8 9 -21 14 -29 11 -7
-3 -19 -2 -25 2 -18 11 -137 52 -138 47 -1 -2 -2 -7 -3 -11 -1 -5 -6 -19 -10
-32 -11 -32 7 -41 76 -36 32 2 58 0 58 -3 0 -4 14 -8 32 -9 17 -1 39 -9 47
-18 14 -13 13 -15 -9 -15 -20 0 -22 2 -10 10 11 8 1 10 -35 7 -33 -2 -49 -7
-47 -15 2 -10 -3 -10 -16 -3 -14 7 -25 6 -42 -6 -21 -15 -24 -15 -36 2 -8 10
-14 14 -14 8 0 -6 7 -16 16 -24 14 -12 14 -14 -5 -21 -12 -4 -27 -5 -35 -2 -7
3 -16 -1 -19 -8 -7 -20 -67 -22 -67 -3 0 12 4 14 19 5 15 -7 23 -6 35 6 25 25
20 54 -9 54 -14 0 -25 5 -25 10 0 6 6 10 13 10 8 0 7 4 -3 10 -12 8 -10 10 10
8 17 -2 25 3 28 15 3 15 -2 18 -25 15 -22 -2 -28 -8 -27 -25 0 -16 -5 -23 -17
-23 -10 0 -30 -5 -44 -12 -21 -9 -28 -9 -35 1 -5 8 -13 10 -21 5 -12 -7 -12
-5 -1 9 8 9 11 21 7 28 -6 8 5 10 38 8 25 -2 43 -1 41 2 -2 4 2 9 10 12 12 5
12 11 -1 40 l-16 34 -76 3 c-42 1 -100 3 -129 3 -29 1 -64 -1 -79 -5z m-18
-28 c-3 -5 -11 -10 -16 -10 -6 0 -7 5 -4 10 3 6 11 10 16 10 6 0 7 -4 4 -10z
m332 -116 c-3 -3 -12 -4 -19 -1 -8 3 -5 6 6 6 11 1 17 -2 13 -5z m-620 -40
c-3 -3 -12 -4 -19 -1 -8 3 -5 6 6 6 11 1 17 -2 13 -5z m658 -4 c-3 -5 -11 -10
-16 -10 -6 0 -7 5 -4 10 3 6 11 10 16 10 6 0 7 -4 4 -10z m-588 -36 c-3 -3
-12 -4 -19 -1 -8 3 -5 6 6 6 11 1 17 -2 13 -5z m68 -4 c-7 -11 60 -9 71 2 3 3
14 4 25 1 18 -5 18 -7 -6 -29 -21 -19 -30 -22 -46 -14 -11 6 -24 8 -29 5 -6
-4 -25 -3 -42 0 -28 7 -29 8 -13 18 19 10 19 11 0 18 -16 6 -13 8 13 8 21 1
31 -3 27 -9z m262 4 c-3 -3 -12 -4 -19 -1 -8 3 -5 6 6 6 11 1 17 -2 13 -5z
m280 -30 c-3 -3 -12 -4 -19 -1 -8 3 -5 6 6 6 11 1 17 -2 13 -5z m-803 -44 c25
-11 49 -20 54 -20 5 0 15 -7 22 -15 10 -12 7 -13 -20 -5 -18 5 -37 13 -43 18
-7 5 -35 17 -64 27 -29 10 -50 22 -47 26 5 9 27 2 98 -31z m-309 10 c4 -6 10
-8 14 -6 4 3 17 -2 27 -12 10 -9 24 -17 29 -17 23 0 125 -51 125 -63 0 -7 5
-10 10 -7 6 3 10 1 10 -5 0 -6 6 -10 13 -9 27 3 37 -2 37 -18 0 -12 3 -14 11
-6 7 7 25 4 60 -13 54 -26 70 -58 50 -100 -8 -19 -8 -24 0 -18 8 5 10 -1 7
-20 -3 -14 -1 -26 4 -26 4 0 6 -39 2 -87 -9 -145 -10 -253 -2 -253 4 0 8 7 8
15 0 8 9 15 19 15 33 0 19 -34 -19 -47 -19 -7 -26 -11 -15 -10 11 1 26 -2 34
-7 10 -7 12 -5 6 5 -6 11 -5 11 5 2 9 -8 9 -16 1 -30 -6 -10 -11 -12 -11 -5 0
6 -7 12 -15 12 -8 0 -14 -3 -13 -8 3 -15 -15 -62 -24 -62 -14 0 -38 26 -38 42
0 10 -3 9 -10 -2 -5 -8 -10 -10 -10 -4 0 6 -11 12 -24 12 -28 0 -60 27 -51 42
3 5 1 10 -4 10 -6 0 -11 7 -11 15 0 8 -8 15 -17 15 -13 0 -15 -2 -5 -8 14 -9
25 -52 14 -52 -12 0 -41 38 -35 44 4 3 1 7 -5 7 -21 2 -27 4 -40 12 -7 5 -10
13 -7 18 4 5 1 9 -5 9 -6 0 -8 5 -5 10 3 6 1 10 -5 10 -6 0 -8 5 -4 12 4 7 3
8 -4 4 -6 -4 -9 -13 -5 -21 4 -11 1 -13 -11 -9 -9 3 -16 11 -16 16 0 6 -7 8
-14 5 -10 -4 -13 -1 -9 9 4 10 -3 14 -25 14 -17 0 -34 5 -37 10 -3 6 0 10 7
10 8 0 9 3 3 8 -14 10 -17 32 -4 32 8 0 8 4 2 13 -13 16 -6 79 10 89 8 5 7 8
-6 8 -16 0 -18 8 -16 58 1 32 -1 63 -4 70 -4 6 -3 13 3 17 6 4 8 10 5 14 -11
19 -13 81 -2 81 8 0 7 3 -1 9 -17 10 -17 22 -1 32 9 5 10 11 2 21 -6 7 -9 20
-8 28 2 8 5 27 8 42 3 16 1 29 -6 32 -9 3 -9 5 0 5 6 1 15 -4 18 -9z m-70 -10
c3 -5 1 -10 -4 -10 -6 0 -11 5 -11 10 0 6 2 10 4 10 3 0 8 -4 11 -10z m1122
-46 c-3 -3 -12 -4 -19 -1 -8 3 -5 6 6 6 11 1 17 -2 13 -5z m46 -36 c-2 -5 -18
-7 -34 -4 -16 2 -31 0 -35 -5 -3 -5 -19 -9 -36 -9 -37 0 -32 9 8 16 16 3 31 7
33 10 8 8 70 0 64 -8z m567 -19 c0 -6 -4 -7 -10 -4 -5 3 -10 11 -10 16 0 6 5
7 10 4 6 -3 10 -11 10 -16z m-579 -28 c-11 -7 -6 -11 20 -14 l34 -4 -37 -1
c-36 -2 -47 6 -31 21 3 4 11 7 17 7 6 0 5 -4 -3 -9z m-91 -13 c0 -4 -6 -8 -12
-9 -7 0 -33 -2 -58 -5 -40 -4 -43 -3 -23 8 25 15 93 19 93 6z m40 3 c0 -6 -5
-13 -11 -17 -6 -3 -9 -15 -6 -25 3 -11 1 -17 -4 -14 -13 8 -6 65 9 65 6 0 12
-4 12 -9z m157 2 c-4 -3 -2 -12 4 -20 9 -10 8 -13 -5 -13 -9 0 -15 6 -13 13 1
6 -6 11 -15 11 -10 -1 -18 2 -18 7 0 5 12 9 27 9 14 0 23 -3 20 -7z m117 -1
c3 -5 -1 -9 -9 -9 -8 0 -12 4 -9 9 3 4 7 8 9 8 2 0 6 -4 9 -8z m-53 -19 c13
-16 12 -17 -3 -4 -17 13 -22 21 -14 21 2 0 10 -8 17 -17z m-771 -2 c0 -6 -4
-13 -10 -16 -5 -3 -10 1 -10 9 0 9 5 16 10 16 6 0 10 -4 10 -9z m300 -11 c0
-5 -5 -10 -11 -10 -5 0 -7 5 -4 10 3 6 8 10 11 10 2 0 4 -4 4 -10z m850 -1 c0
-5 4 -8 8 -5 4 2 8 -5 9 -17 0 -12 -1 -16 -4 -9 -3 6 -9 12 -14 12 -4 0 -6 -6
-3 -14 3 -8 1 -17 -5 -20 -7 -4 -10 6 -9 29 1 19 5 35 10 35 4 0 8 -5 8 -11z
m-530 -3 c0 -2 -7 -7 -16 -10 -8 -3 -12 -2 -9 4 6 10 25 14 25 6z m265 -6 c-3
-5 -12 -10 -18 -10 -7 0 -6 4 3 10 19 12 23 12 15 0z m-900 -20 c3 -5 1 -10
-4 -10 -6 0 -11 5 -11 10 0 6 2 10 4 10 3 0 8 -4 11 -10z m235 -7 c3 -2 -21
-3 -52 -1 -31 1 -54 6 -52 10 5 7 94 -1 104 -9z m64 6 c2 -2 -2 -10 -10 -17
-8 -7 -14 -8 -14 -2 0 5 -7 10 -15 10 -8 0 -15 4 -15 9 0 9 46 9 54 0z m82 -1
c3 -4 -1 -5 -10 -4 -8 1 -18 5 -22 8 -3 4 1 5 10 4 8 -1 18 -5 22 -8z m54 4
c0 -5 -7 -9 -15 -9 -8 0 -15 4 -15 9 0 4 7 8 15 8 8 0 15 -4 15 -8z m-322 -44
l1 -33 -14 25 c-12 22 -7 37 11 40 1 0 1 -15 2 -32z m102 12 c0 -5 -5 -10 -11
-10 -5 0 -7 5 -4 10 3 6 8 10 11 10 2 0 4 -4 4 -10z m177 0 c10 8 15 10 11 6
-4 -5 -3 -15 3 -22 7 -8 7 -14 -1 -19 -6 -4 -9 -1 -8 7 2 7 -4 11 -12 9 -8 -2
-24 -5 -35 -6 -11 -1 -21 -9 -23 -18 -2 -9 -7 -17 -12 -17 -11 0 -34 40 -26
47 10 10 25 -8 20 -25 -2 -9 1 -7 7 6 7 12 18 22 26 22 7 0 13 6 13 13 0 8 3
8 9 -2 8 -13 12 -13 28 -1z m800 -10 c-1 -11 -5 -20 -9 -20 -4 0 -8 9 -8 20 0
11 4 20 9 20 6 0 9 -9 8 -20z m-1211 -5 l29 -15 -37 0 c-36 0 -47 8 -31 23 8
9 6 9 39 -8z m98 -20 c-5 -11 -11 -12 -31 -2 l-26 12 24 6 c30 7 40 3 33 -16z
m136 5 c0 -5 -7 -10 -16 -10 -8 0 -12 5 -9 10 3 6 10 10 16 10 5 0 9 -4 9 -10z
m947 4 c-3 -3 -12 -4 -19 -1 -8 3 -5 6 6 6 11 1 17 -2 13 -5z m-1024 -49 c-2
-36 1 -47 19 -60 21 -14 21 -15 3 -16 -20 0 -20 -1 0 -10 16 -8 15 -8 -8 -4
-21 4 -27 2 -21 -6 5 -8 3 -9 -5 -5 -9 6 -8 13 5 27 16 18 16 19 -4 19 -18 0
-22 -6 -22 -30 0 -25 4 -30 25 -30 16 0 25 -6 25 -15 0 -8 -9 -15 -19 -15 -22
0 -36 -27 -22 -44 6 -7 6 -17 1 -26 -7 -11 -4 -17 8 -22 16 -6 15 -7 -1 -7
-11 -1 -18 -8 -16 -18 3 -34 -1 -41 -26 -39 -14 0 -25 5 -25 9 0 5 -4 5 -10 2
-5 -3 -10 -2 -10 3 0 14 28 23 35 12 9 -15 25 -12 25 4 0 8 -10 16 -22 18 -28
4 -34 23 -8 25 26 2 55 29 37 36 -8 3 -11 27 -9 80 3 61 6 75 18 70 8 -3 14 0
14 6 0 6 -7 11 -15 11 -8 0 -15 7 -15 15 0 8 0 18 0 23 0 4 6 7 13 7 6 0 16 6
20 13 12 18 13 16 10 -33z m-673 15 c0 -5 -5 -10 -11 -10 -5 0 -7 5 -4 10 3 6
8 10 11 10 2 0 4 -4 4 -10z m505 0 c3 -5 1 -10 -4 -10 -6 0 -11 5 -11 10 0 6
2 10 4 10 3 0 8 -4 11 -10z m205 -15 c0 -14 -5 -25 -11 -25 -5 0 -8 4 -4 9 3
5 1 12 -5 16 -15 9 -12 25 5 25 9 0 15 -9 15 -25z m84 -16 c-3 -5 -1 -9 3 -9
5 0 13 -10 18 -22 6 -13 18 -22 27 -22 15 1 16 -2 6 -20 -11 -19 -13 -19 -16
-3 -2 9 -7 15 -10 13 -4 -2 -20 21 -36 52 -24 49 -25 54 -7 38 11 -10 18 -23
15 -27z m-187 11 c1 -11 -2 -20 -8 -20 -5 0 -9 9 -9 20 0 11 4 20 8 20 4 0 8
-9 9 -20z m293 -2 c0 -6 -7 -7 -16 -4 -9 3 -18 6 -20 6 -3 0 -3 4 1 10 7 11
35 2 35 -12z m-901 -22 c9 -10 8 -15 -4 -20 -10 -4 -15 1 -15 14 0 24 4 25 19
6z m506 -16 c3 -5 1 -10 -4 -10 -6 0 -11 5 -11 10 0 6 2 10 4 10 3 0 8 -4 11
-10z m265 -15 c0 -8 -4 -15 -10 -15 -5 0 -7 7 -4 15 4 8 8 15 10 15 2 0 4 -7
4 -15z m947 -21 c-6 -7 -37 7 -37 17 0 4 7 6 15 3 9 -4 15 0 16 7 1 8 3 6 6
-4 3 -10 3 -21 0 -23z m-787 16 c-20 -13 -33 -13 -25 0 3 6 14 10 23 10 15 0
15 -2 2 -10z m-430 -40 c0 -5 -4 -10 -10 -10 -5 0 -10 5 -10 10 0 6 5 10 10
10 6 0 10 -4 10 -10z m330 -30 c0 -5 -8 -10 -17 -10 -15 0 -16 2 -3 10 19 12
20 12 20 0z m-116 -26 c3 -8 2 -12 -4 -9 -6 3 -10 10 -10 16 0 14 7 11 14 -7z
m103 0 c-3 -3 -12 -4 -19 -1 -8 3 -5 6 6 6 11 1 17 -2 13 -5z m-311 -17 c4 -4
-2 -7 -14 -7 -12 0 -22 4 -22 9 0 10 26 9 36 -2z m264 -7 c0 -5 6 -10 13 -10
7 0 18 -9 24 -20 11 -16 10 -18 -4 -13 -11 4 -14 3 -9 -6 5 -8 -1 -11 -21 -9
-16 1 -33 -1 -39 -4 -14 -9 -38 8 -30 21 4 6 14 11 22 11 8 0 12 -5 9 -10 -4
-6 -11 -7 -17 -4 -7 5 -8 2 -4 -5 6 -9 12 -9 25 3 13 12 20 13 29 4 9 -9 12
-8 12 5 0 9 -6 16 -12 15 -7 -2 -12 3 -10 10 1 6 -2 12 -8 12 -5 0 -10 -4 -10
-10 0 -5 -10 -10 -22 -10 -23 1 -23 1 2 15 30 17 50 19 50 5z m917 -12 c-3 -8
-6 -5 -6 6 -1 11 2 17 5 13 3 -3 4 -12 1 -19z m-1177 -2 c0 -9 -30 -14 -35 -6
-4 6 3 10 14 10 12 0 21 -2 21 -4z m100 -6 c-20 -13 -33 -13 -25 0 3 6 14 10
23 10 15 0 15 -2 2 -10z m-610 -50 c0 -5 -4 -10 -10 -10 -5 0 -10 5 -10 10 0
6 5 10 10 10 6 0 10 -4 10 -10z m494 -1 c-3 -6 0 -15 7 -20 9 -5 10 -12 4 -18
-6 -6 -16 -7 -24 -2 -10 7 -11 13 -2 30 7 11 14 21 17 21 3 0 2 -5 -2 -11z
m264 -19 c29 8 32 7 32 -13 0 -33 -12 -44 -45 -43 -16 1 -36 -3 -43 -8 -7 -5
-15 -6 -19 -2 -3 3 -1 6 5 6 6 0 9 8 6 18 -4 10 -2 13 3 7 12 -16 83 -11 83 5
0 14 -27 12 -33 -2 -3 -9 -9 -7 -19 6 -8 10 -20 16 -26 13 -6 -5 -8 1 -5 14 6
20 7 20 18 6 9 -13 19 -15 43 -7z m-145 -72 c2 -18 0 -39 -5 -45 -6 -7 -7 -13
-3 -13 4 0 2 -6 -4 -14 -9 -11 -9 -15 1 -19 8 -4 7 -6 -4 -6 -13 -1 -17 6 -16
27 1 15 6 33 12 40 11 16 -11 35 -29 25 -5 -4 -1 3 9 15 26 30 33 28 39 -10z
m37 23 c0 -6 -4 -13 -10 -16 -5 -3 -10 1 -10 9 0 9 5 16 10 16 6 0 10 -4 10
-9z m1075 -39 c-8 -8 -25 10 -19 20 4 6 9 5 15 -3 4 -7 6 -15 4 -17z m-1081
-17 c-4 -8 -8 -15 -10 -15 -2 0 -4 7 -4 15 0 8 4 15 10 15 5 0 7 -7 4 -15z
m43 9 c-3 -3 -12 -4 -19 -1 -8 3 -5 6 6 6 11 1 17 -2 13 -5z m83 -4 c14 -4 19
-8 12 -9 -7 -1 -10 -5 -7 -11 9 -15 -1 -12 -37 10 -25 15 -28 20 -13 19 11 -1
31 -5 45 -9z m-238 -22 c-7 -7 -12 -8 -12 -2 0 6 3 14 7 17 3 4 9 5 12 2 2 -3
-1 -11 -7 -17z m1035 6 c-3 -3 -12 -4 -19 -1 -8 3 -5 6 6 6 11 1 17 -2 13 -5z
m-847 -13 c0 -5 7 -8 16 -7 9 0 19 -5 21 -12 3 -8 -1 -10 -13 -5 -12 4 -15 3
-10 -5 4 -7 1 -12 -8 -12 -9 0 -16 7 -16 16 0 8 -4 12 -10 9 -6 -3 -7 1 -4 9
7 17 24 22 24 7z m-180 -21 c0 -5 -2 -10 -4 -10 -3 0 -8 5 -11 10 -3 6 -1 10
4 10 6 0 11 -4 11 -10z m100 -4 c0 -8 3 -23 6 -33 5 -16 4 -16 -10 1 -18 22
-21 46 -6 46 6 0 10 -6 10 -14z m30 -6 c6 -11 8 -20 6 -20 -3 0 -10 9 -16 20
-6 11 -8 20 -6 20 3 0 10 -9 16 -20z m-120 -14 c0 -3 -4 -8 -10 -11 -5 -3 -10
-1 -10 4 0 6 5 11 10 11 6 0 10 -2 10 -4z m-53 -12 c-3 -3 -12 -4 -19 -1 -8 3
-5 6 6 6 11 1 17 -2 13 -5z m113 -15 c0 -14 -16 -11 -29 5 -10 12 -8 13 8 9
12 -3 21 -9 21 -14z m140 17 c0 -2 -7 -7 -16 -10 -8 -3 -12 -2 -9 4 6 10 25
14 25 6z m-283 -22 c-3 -3 -12 -4 -19 -1 -8 3 -5 6 6 6 11 1 17 -2 13 -5z
m246 -25 c-9 -9 -12 -7 -10 9 1 14 5 18 11 12 7 -7 6 -14 -1 -21z m-425 1 c41
-25 42 -36 1 -14 -29 14 -33 14 -47 0 -15 -15 -14 -16 11 -17 36 -2 39 -3 62
-16 11 -7 15 -13 8 -13 -11 0 -10 -36 2 -48 3 -3 23 -6 45 -6 46 -1 49 -3 18
-15 -25 -10 -48 -1 -91 35 -26 22 -27 29 -3 25 5 -1 3 5 -4 14 -10 12 -15 13
-21 4 -4 -8 -16 -9 -35 -4 -16 5 -36 8 -44 7 -12 -1 -12 0 -1 5 11 4 11 7 0
14 -11 7 -10 9 4 9 9 0 17 -4 17 -10 0 -5 5 -10 11 -10 5 0 8 3 6 8 -6 10 10
52 20 52 4 0 23 -9 41 -20z m222 5 c0 -8 -9 -15 -20 -15 -20 0 -26 11 -13 23
12 13 33 7 33 -8z m164 7 c2 -4 -7 -12 -20 -19 -19 -9 -24 -8 -24 2 0 19 34
32 44 17z m-64 -11 c0 -6 -4 -13 -10 -16 -5 -3 -10 1 -10 9 0 9 5 16 10 16 6
0 10 -4 10 -9z m-76 -12 c-3 -6 -1 -15 6 -19 9 -5 8 -9 -3 -13 -10 -4 -14 1
-12 16 3 26 3 27 11 27 3 0 2 -5 -2 -11z m-74 -13 c0 -3 -4 -8 -10 -11 -5 -3
-10 -1 -10 4 0 6 5 11 10 11 6 0 10 -2 10 -4z m43 -11 c0 -6 -7 -11 -16 -13
-12 -3 -15 1 -11 13 7 17 25 17 27 0z m-152 -12 c13 -16 12 -17 -3 -4 -10 7
-18 15 -18 17 0 8 8 3 21 -13z m304 7 c-3 -5 -11 -10 -16 -10 -6 0 -7 5 -4 10
3 6 11 10 16 10 6 0 7 -4 4 -10z m305 -24 c-12 -12 -50 -16 -50 -5 0 7 23 15
48 15 9 1 9 -3 2 -10z m-432 -8 c6 -1 12 -11 12 -22 -1 -19 -2 -19 -11 -3 -8
13 -15 15 -28 7 -20 -10 -31 -4 -31 16 0 8 8 11 23 8 12 -3 28 -6 35 -6z
m-178 -8 c0 -5 -5 -10 -11 -10 -5 0 -7 5 -4 10 3 6 8 10 11 10 2 0 4 -4 4 -10z
m49 1 c9 -6 10 -11 2 -15 -6 -4 -11 -1 -11 6 0 11 -2 10 -9 0 -7 -11 -9 -11
-14 2 -7 17 10 21 32 7z m252 -14 c-13 -13 -26 -3 -16 12 3 6 11 8 17 5 6 -4
6 -10 -1 -17z m246 17 c-3 -3 -12 -4 -19 -1 -8 3 -5 6 6 6 11 1 17 -2 13 -5z
m-287 -19 c0 -9 -6 -12 -15 -9 -8 4 -15 10 -15 15 0 5 7 9 15 9 8 0 15 -7 15
-15z m204 -29 c-8 -22 -74 -36 -74 -16 0 6 11 10 25 10 14 0 25 5 25 10 0 6 7
10 15 10 8 0 12 -6 9 -14z m36 5 c0 -5 -7 -11 -14 -14 -10 -4 -13 -1 -9 9 6
15 23 19 23 5z m100 -13 c0 -13 -23 -5 -28 10 -2 7 2 10 12 6 9 -3 16 -11 16
-16z m-255 2 c5 -8 11 -8 19 -1 9 7 12 4 12 -14 0 -14 -1 -25 -2 -25 -2 0 -15
11 -30 25 -15 14 -22 25 -16 25 6 0 14 -5 17 -10z m-230 -20 c3 -6 -4 -10 -17
-10 -18 0 -20 2 -8 10 19 12 18 12 25 0z m72 4 c-3 -3 -12 -4 -19 -1 -8 3 -5
6 6 6 11 1 17 -2 13 -5z m131 -11 c-6 -7 -18 -13 -27 -12 -10 0 -12 2 -3 6 6
2 10 8 8 12 -3 4 4 7 14 7 14 0 16 -3 8 -13z m-251 1 c-3 -3 -12 -4 -19 -1 -8
3 -5 6 6 6 11 1 17 -2 13 -5z m123 -42 c-4 -56 0 -72 17 -72 9 0 14 -3 11 -6
-3 -3 -23 -2 -43 2 -20 3 -33 9 -28 13 4 3 9 17 10 31 5 47 14 71 24 64 6 -3
10 -18 9 -32z m-70 -10 c0 -1 -9 2 -20 8 -11 6 -20 15 -20 20 0 6 9 2 20 -7
11 -10 20 -19 20 -21z m190 13 c-7 -9 -15 -13 -17 -11 -7 7 7 26 19 26 6 0 6
-6 -2 -15z m53 -2 c-7 -2 -19 -2 -25 0 -7 3 -2 5 12 5 14 0 19 -2 13 -5z"/>
<path d="M390 1242 c0 -5 7 -9 15 -9 8 0 12 4 9 9 -3 4 -9 8 -15 8 -5 0 -9 -4
-9 -8z"/>
<path d="M688 1183 c7 -3 16 -2 19 1 4 3 -2 6 -13 5 -11 0 -14 -3 -6 -6z"/>
<path d="M485 1160 c-3 -5 -3 -10 1 -10 4 0 0 -8 -9 -17 -8 -10 -19 -30 -22
-46 -4 -15 -10 -29 -14 -32 -17 -10 3 -153 28 -209 22 -46 51 -79 51 -56 0 8
-6 21 -14 29 -48 56 -60 215 -19 264 23 29 31 71 14 82 -5 3 -12 1 -16 -5z"/>
<path d="M519 1100 c-1 -14 -2 -41 -1 -60 0 -19 -2 -27 -4 -17 -7 21 -24 23
-24 1 0 -8 -4 -12 -10 -9 -6 4 -10 -10 -10 -34 0 -21 5 -41 10 -43 6 -2 12
-13 13 -26 1 -22 1 -22 21 -2 20 19 20 20 -2 43 -12 13 -22 30 -22 38 1 10 5
8 15 -5 24 -31 38 -6 36 61 -2 58 -20 100 -22 53z"/>
<path d="M600 1081 c0 -16 11 -53 25 -83 42 -90 32 -208 -20 -228 -14 -5 -25
-15 -25 -22 0 -7 -6 -2 -13 11 -16 32 -37 39 -37 12 0 -12 6 -21 15 -21 13 0
14 -4 5 -21 -10 -18 -9 -19 7 -11 10 6 25 10 33 10 50 -3 58 2 71 46 7 25 16
43 20 40 4 -2 13 4 20 14 13 15 12 16 -3 3 -15 -11 -19 -11 -23 0 -8 23 -1 89
10 89 6 0 4 4 -3 9 -7 4 -17 23 -22 42 -17 65 -45 139 -52 139 -5 0 -8 -13 -8
-29z"/>
<path d="M566 1074 c-22 -57 14 -168 45 -137 6 6 9 20 5 30 -6 15 -8 15 -16 3
-12 -18 -14 -8 -10 61 2 47 -13 73 -24 43z"/>
<path d="M730 960 c-23 -7 -23 -8 -3 -9 12 -1 25 4 28 9 3 6 5 10 3 9 -2 -1
-14 -5 -28 -9z"/>
<path d="M540 946 c0 -15 18 -31 26 -23 7 7 -7 37 -17 37 -5 0 -9 -6 -9 -14z"/>
<path d="M621 916 c-11 -13 -16 -14 -22 -4 -15 24 -22 -22 -8 -49 7 -13 15
-20 17 -14 2 6 8 11 14 11 6 0 7 -8 3 -17 -4 -13 -3 -15 5 -7 6 6 10 31 8 54
-3 39 -4 42 -17 26z"/>
<path d="M516 871 c-16 -29 -15 -30 23 -60 34 -27 40 -29 51 -16 10 13 9 19
-6 36 -10 11 -19 30 -19 42 0 34 -31 33 -49 -2z"/>
<path d="M625 700 c-16 -7 -17 -9 -3 -9 9 -1 20 4 23 9 7 11 7 11 -20 0z"/>
<path d="M1473 1620 c-6 -22 -23 -28 -23 -8 0 9 -3 9 -12 0 -13 -13 -10 -19
12 -22 34 -5 46 1 48 25 2 30 -18 34 -25 5z"/>
<path d="M431 1517 c-6 -8 -8 -17 -4 -20 3 -4 17 -7 31 -7 19 0 22 3 13 13 -6
8 -8 17 -4 20 3 4 -1 7 -9 7 -9 0 -21 -6 -27 -13z"/>
<path d="M407 1465 c3 -8 9 -12 14 -9 12 7 11 11 -5 17 -10 4 -13 1 -9 -8z"/>
<path d="M290 1452 c0 -4 10 -9 22 -9 18 -2 20 0 8 7 -18 12 -30 13 -30 2z"/>
<path d="M258 1443 c7 -3 16 -2 19 1 4 3 -2 6 -13 5 -11 0 -14 -3 -6 -6z"/>
<path d="M1960 1442 c0 -4 -22 -7 -48 -5 -43 3 -50 1 -59 -20 -9 -19 -8 -24 3
-24 8 0 13 6 10 14 -4 9 6 13 34 14 22 1 45 3 50 4 6 1 15 3 20 4 6 0 10 6 10
11 0 6 -4 10 -10 10 -5 0 -10 -4 -10 -8z"/>
<path d="M1779 1413 c14 -28 41 -30 41 -3 0 11 -5 20 -11 20 -5 0 -7 -4 -4
-10 9 -14 -8 -12 -24 3 -11 10 -11 8 -2 -10z"/>
<path d="M250 1412 c0 -5 6 -9 13 -9 6 0 21 -4 32 -8 20 -7 20 -6 1 9 -21 17
-46 21 -46 8z"/>
<path d="M358 1403 c7 -3 16 -2 19 1 4 3 -2 6 -13 5 -11 0 -14 -3 -6 -6z"/>
<path d="M1888 1393 c7 -3 16 -2 19 1 4 3 -2 6 -13 5 -11 0 -14 -3 -6 -6z"/>
<path d="M2098 1393 c7 -3 16 -2 19 1 4 3 -2 6 -13 5 -11 0 -14 -3 -6 -6z"/>
<path d="M2010 1381 c0 -5 9 -7 20 -4 11 3 20 7 20 9 0 2 -9 4 -20 4 -11 0
-20 -4 -20 -9z"/>
<path d="M2110 1340 c-9 -6 -10 -10 -3 -10 6 0 15 5 18 10 8 12 4 12 -15 0z"/>
<path d="M1934 1264 c-10 -8 -13 -13 -6 -9 6 3 12 1 12 -4 0 -6 4 -11 8 -11 4
0 8 9 8 20 0 11 -1 20 -1 20 -1 0 -10 -7 -21 -16z"/>
<path d="M1714 1203 c10 -11 37 -12 30 -2 -3 5 -12 9 -21 9 -9 0 -13 -3 -9 -7z"/>
<path d="M1897 1178 c-9 -13 -23 -47 -33 -75 -17 -49 -17 -54 -2 -69 11 -11
23 -14 39 -8 13 4 27 7 30 6 3 0 6 36 5 80 -1 87 -13 107 -39 66z"/>
<path d="M2075 1190 c3 -5 8 -10 11 -10 2 0 4 5 4 10 0 6 -5 10 -11 10 -5 0
-7 -4 -4 -10z"/>
<path d="M2077 1153 c-10 -9 -9 -23 1 -23 5 0 9 7 9 15 0 17 -1 18 -10 8z"/>
<path d="M2075 1100 c3 -5 8 -10 11 -10 2 0 4 5 4 10 0 6 -5 10 -11 10 -5 0
-7 -4 -4 -10z"/>
<path d="M2079 1078 c-6 -24 -5 -58 2 -58 5 0 9 14 9 30 0 17 -2 30 -5 30 -3
0 -5 -1 -6 -2z"/>
<path d="M1484 1001 c4 -5 1 -11 -5 -13 -6 -2 0 -12 12 -23 l22 -20 -6 23 c-4
19 -2 22 14 17 23 -8 26 10 3 19 -23 9 -46 7 -40 -3z"/>
<path d="M2070 994 c0 -8 5 -12 10 -9 6 3 10 10 10 16 0 5 -4 9 -10 9 -5 0
-10 -7 -10 -16z"/>
<path d="M1608 943 c6 -2 18 -2 25 0 6 3 1 5 -13 5 -14 0 -19 -2 -12 -5z"/>
<path d="M1496 919 c2 -4 -14 -9 -36 -13 -39 -6 -40 -7 -40 -46 0 -21 3 -41 8
-44 4 -2 30 0 57 5 99 18 95 15 95 63 l0 43 -44 -1 c-24 -1 -42 -4 -40 -7z
m37 -25 c-7 -3 -10 -11 -7 -17 3 -8 -9 -13 -31 -14 -27 -2 -33 0 -28 12 3 10
12 13 24 10 11 -4 19 -2 19 4 0 6 8 11 18 10 9 0 12 -3 5 -5z"/>
<path d="M1679 918 c-9 -34 -5 -59 10 -68 18 -9 31 -4 31 12 0 5 -4 7 -9 4 -5
-3 -12 1 -15 10 -4 11 -1 14 13 12 17 -3 21 1 21 22 0 8 -49 15 -51 8z"/>
<path d="M1360 900 c0 -13 11 -13 30 0 12 8 11 10 -7 10 -13 0 -23 -4 -23 -10z"/>
<path d="M1370 860 c-8 -5 -11 -12 -8 -16 4 -3 14 1 23 10 18 17 9 21 -15 6z"/>
<path d="M1242 841 c-14 -9 -2 -22 30 -34 25 -9 34 14 13 30 -22 15 -25 16
-43 4z"/>
<path d="M2040 839 c0 -5 5 -7 10 -4 6 3 10 8 10 11 0 2 -4 4 -10 4 -5 0 -10
-5 -10 -11z"/>
<path d="M1615 830 c-4 -6 5 -10 20 -10 15 0 24 4 20 10 -3 6 -12 10 -20 10
-8 0 -17 -4 -20 -10z"/>
<path d="M1368 823 c7 -3 16 -2 19 1 4 3 -2 6 -13 5 -11 0 -14 -3 -6 -6z"/>
<path d="M1866 821 c-3 -5 1 -11 9 -14 9 -4 12 -1 8 9 -6 16 -10 17 -17 5z"/>
<path d="M1230 793 c0 -11 11 -25 25 -31 36 -17 31 6 -7 37 -16 12 -18 11 -18
-6z"/>
<path d="M1785 800 c3 -5 11 -10 16 -10 6 0 7 5 4 10 -3 6 -11 10 -16 10 -6 0
-7 -4 -4 -10z"/>
<path d="M2075 791 c-3 -5 -1 -12 5 -16 5 -3 10 1 10 9 0 18 -6 21 -15 7z"/>
<path d="M1418 783 c7 -3 16 -2 19 1 4 3 -2 6 -13 5 -11 0 -14 -3 -6 -6z"/>
<path d="M1358 773 c7 -3 16 -2 19 1 4 3 -2 6 -13 5 -11 0 -14 -3 -6 -6z"/>
<path d="M1491 772 c-1 -8 -8 -11 -19 -8 -10 4 -27 -1 -38 -9 -18 -14 -16 -15
20 -11 44 5 50 10 43 28 -4 11 -6 11 -6 0z"/>
<path d="M1515 769 c-4 -5 3 -9 14 -9 26 0 35 15 11 17 -11 1 -22 -2 -25 -8z"/>
<path d="M1885 770 c3 -5 12 -7 20 -3 21 7 19 13 -6 13 -11 0 -18 -4 -14 -10z"/>
<path d="M2070 750 c0 -5 5 -10 10 -10 6 0 10 5 10 10 0 6 -4 10 -10 10 -5 0
-10 -4 -10 -10z"/>
<path d="M270 716 c0 -2 7 -6 15 -10 8 -3 15 -1 15 4 0 6 -7 10 -15 10 -8 0
-15 -2 -15 -4z"/>
<path d="M206 691 c-7 -10 -2 -20 15 -34 13 -11 23 -24 21 -29 -3 -11 16 -38
28 -38 3 0 7 7 7 15 0 8 -4 12 -9 9 -4 -3 -8 1 -9 8 -2 36 -19 81 -19 50 0
-22 -19 -12 -22 11 -2 17 -5 19 -12 8z"/>
<path d="M1805 690 c-3 -5 -1 -10 4 -10 6 0 11 5 11 10 0 6 -2 10 -4 10 -3 0
-8 -4 -11 -10z"/>
<path d="M2150 620 c0 -5 7 -10 15 -10 8 0 15 5 15 10 0 6 -7 10 -15 10 -8 0
-15 -4 -15 -10z"/>
<path d="M1480 590 c0 -5 7 -7 15 -4 8 4 15 8 15 10 0 2 -7 4 -15 4 -8 0 -15
-4 -15 -10z"/>
<path d="M1428 583 c7 -3 16 -2 19 1 4 3 -2 6 -13 5 -11 0 -14 -3 -6 -6z"/>
<path d="M1818 583 c7 -3 16 -2 19 1 4 3 -2 6 -13 5 -11 0 -14 -3 -6 -6z"/>
<path d="M330 570 c8 -5 22 -9 30 -9 10 0 8 3 -5 9 -27 12 -43 12 -25 0z"/>
<path d="M49 554 c10 -22 86 -94 99 -94 4 0 23 -15 43 -33 79 -70 318 -260
387 -307 96 -64 164 -85 272 -84 95 1 133 10 270 61 52 19 118 41 145 49 80
22 347 77 435 89 25 4 77 13 117 21 39 7 149 25 243 38 174 25 252 50 264 83
5 12 4 13 -7 5 -26 -22 -95 -41 -209 -57 -229 -33 -637 -107 -757 -136 -68
-17 -180 -50 -249 -75 -301 -107 -416 -78 -727 181 -60 50 -155 127 -210 170
-55 44 -106 86 -113 95 -11 13 -12 12 -3 -6z"/>
<path d="M1928 553 c7 -3 16 -2 19 1 4 3 -2 6 -13 5 -11 0 -14 -3 -6 -6z"/>
<path d="M2125 545 l-30 -14 34 2 c19 1 36 8 39 15 5 15 -5 15 -43 -3z"/>
<path d="M1575 535 c-53 -18 -25 -18 45 0 38 9 46 13 25 13 -16 0 -48 -6 -70
-13z"/>
<path d="M1825 539 c-4 -6 -4 -13 -1 -16 3 -4 6 -1 6 6 0 7 3 10 8 7 4 -2 23
-1 42 4 l35 8 -42 1 c-23 1 -45 -4 -48 -10z"/>
<path d="M1649 493 c-13 -16 -12 -17 4 -4 16 13 21 21 13 21 -2 0 -10 -8 -17
-17z"/>
<path d="M1680 502 c0 -5 14 -7 30 -4 17 2 30 6 30 8 0 2 -13 4 -30 4 -16 0
-30 -4 -30 -8z"/>
<path d="M1406 492 c-2 -4 4 -8 14 -8 10 0 16 4 14 8 -3 4 -9 8 -14 8 -5 0
-11 -4 -14 -8z"/>
<path d="M1500 474 c0 -9 -35 -15 -97 -16 -14 0 -20 -5 -16 -14 4 -11 10 -11
26 -3 11 7 46 11 76 10 40 0 52 2 41 9 -11 7 -4 10 27 10 23 0 44 4 47 9 4 5
-18 8 -49 8 -31 -1 -55 -7 -55 -13z"/>
<path d="M1570 450 c-11 -8 -7 -9 15 -4 37 8 45 14 19 14 -10 0 -26 -5 -34
-10z"/>
<path d="M1488 403 c7 -3 16 -2 19 1 4 3 -2 6 -13 5 -11 0 -14 -3 -6 -6z"/>
<path d="M1118 323 c7 -3 16 -2 19 1 4 3 -2 6 -13 5 -11 0 -14 -3 -6 -6z"/>
</g>
</svg>
