<?xml version="1.0" standalone="no"?>
<!DOCTYPE svg PUBLIC "-//W3C//DTD SVG 20010904//EN"
 "http://www.w3.org/TR/2001/REC-SVG-20010904/DTD/svg10.dtd">
<svg version="1.0" xmlns="http://www.w3.org/2000/svg"
 width="920.000000pt" height="532.000000pt" viewBox="0 0 920.000000 532.000000"
 preserveAspectRatio="xMidYMid meet">

<g transform="translate(0.000000,532.000000) scale(0.100000,-0.100000)"
fill="#000000" stroke="none">
<path d="M5945 5275 l-110 -42 -3 -82 c-2 -62 -6 -81 -17 -81 -8 0 -119 -13
-247 -30 -228 -29 -974 -123 -2503 -315 -805 -101 -2213 -279 -2728 -344 -169
-21 -310 -40 -312 -43 -2 -2 5 -109 15 -238 10 -129 24 -301 30 -381 l11 -145
-41 -42 c-40 -39 -41 -44 -35 -84 5 -31 208 -791 251 -939 3 -10 -10 -26 -37
-45 l-42 -29 6 -90 c11 -172 61 -400 103 -472 19 -33 31 -43 52 -44 55 -2 88
3 110 18 13 8 25 13 27 11 1 -2 89 -289 195 -638 l192 -635 106 -195 c112
-206 169 -305 208 -356 l23 -32 63 13 c187 40 1678 409 4888 1210 1924 481
2498 628 2508 642 7 10 36 57 63 104 85 145 69 134 269 175 96 20 176 37 177
38 1 1 9 41 16 88 l14 87 -148 108 c-133 96 -147 110 -143 133 4 23 94 753 94
762 0 3 -20 19 -44 36 -39 29 -52 32 -113 32 -67 0 -70 1 -108 40 -26 26 -48
40 -65 40 -15 0 -101 46 -208 111 l-182 111 0 46 -1 47 -377 236 c-207 130
-657 413 -999 629 l-623 393 0 52 c0 108 0 108 -108 145 -54 18 -101 34 -107
36 -5 1 -59 -17 -120 -41z m-85 -611 c-11 -192 -23 -377 -26 -411 l-5 -61
-159 -95 -160 -96 -54 54 c-65 63 -183 136 -341 211 -391 186 -1039 291 -1710
278 -309 -7 -633 -33 -842 -70 -195 -34 -603 -175 -838 -290 -484 -236 -653
-499 -508 -794 67 -136 247 -297 463 -413 205 -110 646 -220 1085 -271 410
-48 1003 -53 1431 -12 340 33 735 164 1001 333 212 133 396 326 492 513 5 8
135 89 290 180 l281 165 0 47 0 48 46 0 c39 0 45 3 40 18 -3 9 -15 47 -26 83
-17 56 -25 69 -55 85 -30 16 -35 24 -35 54 0 64 22 765 25 768 1 1 53 -30 116
-70 63 -40 500 -316 972 -613 471 -297 857 -542 857 -545 0 -3 -229 -43 -508
-89 -279 -46 -510 -87 -515 -91 -12 -10 55 -54 81 -52 12 1 232 38 489 82 256
45 473 78 481 75 9 -3 107 -59 218 -125 112 -66 220 -129 241 -141 21 -11 47
-30 59 -40 14 -13 35 -19 70 -19 41 0 55 -6 86 -33 l36 -32 -57 -397 c-64
-442 -67 -453 -123 -420 -16 9 -34 22 -39 28 -6 8 9 132 42 348 28 186 49 339
47 341 -2 3 -83 -11 -179 -31 -192 -39 -716 -144 -4752 -958 -1512 -305 -2751
-557 -2754 -560 -4 -4 8 -201 25 -438 17 -237 30 -434 28 -436 -3 -2 -35 -5
-71 -5 l-67 -2 -110 370 c-60 204 -194 660 -299 1015 -257 871 -367 1237 -385
1286 -13 37 -19 42 -57 50 l-42 9 -20 374 c-13 244 -17 375 -10 376 6 2 573
78 1260 169 1093 145 3246 433 4185 560 173 23 316 41 318 40 1 0 -7 -158 -18
-350z m-67 -608 c44 -19 71 -51 102 -121 24 -54 26 -66 19 -143 -6 -80 -8 -85
-38 -103 -40 -24 -56 -24 -56 1 0 11 -6 23 -13 26 -8 3 -179 -76 -381 -175
l-368 -180 -96 30 c-54 17 -118 37 -144 45 l-48 16 18 34 c15 29 86 76 467
309 291 177 460 274 478 274 15 1 42 -5 60 -13z m-313 -591 c28 -14 50 -32 50
-39 0 -8 -16 -20 -36 -26 -32 -11 -42 -10 -85 11 -27 12 -49 25 -49 28 0 6 61
51 68 51 1 0 25 -11 52 -25z m-442 -174 c3 -41 2 -42 -20 -36 -49 16 -64 23
-82 44 -16 18 -26 20 -71 15 -58 -7 -57 -8 -70 67 l-7 36 124 -42 123 -42 3
-42z m3505 -439 l106 -78 -52 0 c-89 -1 -170 -58 -197 -140 -12 -36 -9 -121 5
-159 4 -11 -42 29 -104 90 -95 94 -111 114 -111 142 0 67 53 146 129 195 74
46 100 41 224 -50z m-1010 -124 c20 -10 167 -118 192 -140 5 -5 -4 -6 -22 -2
-66 13 -164 -39 -203 -108 -24 -44 -31 -106 -17 -168 7 -35 4 -33 -98 65 -120
115 -131 136 -96 207 23 49 90 119 136 142 36 19 78 20 108 4z m1087 -35 c0
-70 -32 -127 -85 -153 -24 -12 -57 -20 -72 -18 -27 3 -28 5 -28 63 0 46 5 67
22 91 28 39 76 63 126 64 l37 0 0 -47z m-910 -199 c0 -91 -52 -166 -125 -180
-60 -11 -68 -2 -63 66 5 69 25 103 78 131 19 11 52 19 72 19 37 0 38 -1 38
-36z m1312 -156 c99 -93 116 -114 101 -120 -10 -4 -718 -167 -1573 -362 -855
-195 -2638 -603 -3962 -906 -1324 -302 -2411 -550 -2415 -550 -5 0 -24 54 -44
120 -41 136 -48 122 64 141 l68 11 -6 39 c-6 34 -4 39 17 44 13 3 1281 282
2818 620 1537 339 3236 713 3775 831 539 119 991 222 1005 230 14 7 27 13 28
14 2 0 58 -51 124 -112z"/>
</g>
</svg>
