<?xml version="1.0" standalone="no"?>
<!DOCTYPE svg PUBLIC "-//W3C//DTD SVG 20010904//EN"
 "http://www.w3.org/TR/2001/REC-SVG-20010904/DTD/svg10.dtd">
<svg version="1.0" xmlns="http://www.w3.org/2000/svg"
 width="840.000000pt" height="700.000000pt" viewBox="0 0 840.000000 700.000000"
 preserveAspectRatio="xMidYMid meet">

<g transform="translate(0.000000,700.000000) scale(0.100000,-0.100000)"
fill="#000000" stroke="none">
<path d="M1914 4465 c-234 -52 -409 -205 -490 -430 -25 -71 -28 -93 -28 -195
0 -99 4 -126 28 -195 151 -436 685 -586 1051 -295 148 118 235 297 235 484 0
107 -18 183 -65 281 -128 264 -440 413 -731 350z m348 -242 c21 -19 26 -107 6
-120 -7 -4 -42 -9 -78 -9 -89 -2 -85 -1 -98 -29 -18 -39 -14 -73 9 -96 17 -17
28 -20 63 -15 63 10 76 1 76 -49 0 -47 -6 -54 -54 -66 -28 -6 -29 -7 -6 -8 14
-1 36 6 48 15 12 8 22 11 22 6 0 -19 -27 -31 -80 -34 l-55 -3 -2 -185 c-2
-163 -4 -186 -19 -197 -23 -17 -185 -18 -202 -1 -8 8 -12 66 -12 195 l0 182
-37 6 c-62 10 -68 16 -71 81 -3 65 10 84 59 84 36 0 45 15 52 81 7 75 27 112
79 142 57 33 66 34 182 36 80 1 103 -2 118 -16z m-142 -154 c-7 -11 -14 -18
-17 -15 -3 3 0 12 7 21 18 21 23 19 10 -6z m-8 -64 c3 -17 13 -21 73 -25 39
-3 76 -9 83 -13 16 -11 15 -35 -4 -72 l-14 -30 4 37 c6 51 -15 68 -83 65 -57
-2 -81 15 -81 57 0 24 16 10 22 -19z"/>
<path d="M2215 4218 c11 -6 26 -18 33 -26 6 -9 12 -11 12 -4 0 12 -39 42 -55
42 -5 0 -1 -6 10 -12z"/>
<path d="M2068 4213 c23 -2 61 -2 85 0 23 2 4 4 -43 4 -47 0 -66 -2 -42 -4z"/>
<path d="M1945 4175 c-16 -13 -26 -24 -21 -25 4 0 21 11 38 25 16 14 26 25 21
25 -4 0 -21 -11 -38 -25z"/>
<path d="M2251 4145 c0 -12 -6 -26 -13 -33 -9 -9 -9 -12 0 -12 16 0 25 23 19
47 -4 16 -5 15 -6 -2z"/>
<path d="M1888 3989 c-2 -7 -24 -17 -48 -23 -24 -6 -45 -18 -48 -26 -3 -12 -2
-12 6 -2 5 8 28 16 51 19 38 5 62 25 48 39 -3 3 -7 0 -9 -7z"/>
<path d="M1790 3862 c0 -12 19 -26 26 -19 2 2 -2 10 -11 17 -9 8 -15 8 -15 2z"/>
<path d="M1850 3833 c14 -2 31 -12 38 -21 13 -16 14 -15 10 3 -2 15 -12 20
-38 22 -23 1 -26 -1 -10 -4z"/>
<path d="M2089 3819 c-7 -14 -10 -77 -8 -189 2 -93 1 -172 -3 -176 -4 -4 -25
-11 -45 -15 -38 -8 -38 -8 6 -4 24 2 48 9 53 17 5 7 8 85 7 173 -1 204 -3 190
24 203 l22 11 -22 0 c-13 1 -27 -8 -34 -20z"/>
<path d="M1894 3605 c0 -82 2 -115 3 -72 2 43 2 110 0 150 -1 40 -3 5 -3 -78z"/>
<path d="M1910 3440 c8 -5 22 -9 30 -9 10 0 8 3 -5 9 -27 12 -43 12 -25 0z"/>
<path d="M3340 4460 c-126 -33 -214 -84 -311 -180 -69 -67 -94 -101 -121 -160
-56 -119 -72 -193 -65 -307 13 -237 145 -434 360 -537 118 -56 178 -71 302
-71 124 0 184 15 305 72 80 38 108 58 175 127 135 137 192 285 182 476 -9 163
-74 299 -201 417 -168 157 -408 219 -626 163z m433 -283 c47 -20 92 -62 116
-107 19 -38 21 -57 21 -256 0 -192 -2 -219 -19 -253 -24 -46 -91 -108 -128
-118 -16 -5 -134 -8 -263 -8 -259 0 -265 1 -330 67 -56 56 -60 76 -60 312 0
118 4 226 10 240 13 36 79 105 114 121 44 19 493 21 539 2z"/>
<path d="M3259 4167 c-67 -25 -106 -64 -127 -126 -8 -21 -12 -109 -12 -236 0
-192 1 -204 23 -246 13 -24 43 -57 66 -74 l43 -30 258 0 258 0 39 31 c21 17
48 46 61 65 23 33 23 37 20 270 -3 268 -2 264 -87 324 l-43 30 -231 2 c-173 2
-241 0 -268 -10z m520 -27 c53 -27 89 -72 96 -123 4 -23 5 -130 3 -237 -3
-222 -11 -245 -86 -288 -38 -21 -50 -22 -283 -22 -235 0 -246 1 -284 23 -22
13 -49 40 -62 62 -22 38 -23 50 -23 260 0 209 1 222 23 259 14 25 39 48 66 63
43 22 53 23 278 23 212 0 237 -2 272 -20z"/>
<path d="M3274 4109 c-41 -12 -74 -49 -85 -96 -12 -52 -11 -359 1 -404 5 -19
24 -48 41 -65 l30 -29 234 -3 c260 -3 278 0 315 61 18 29 20 51 20 242 0 309
4 305 -317 304 -114 0 -222 -5 -239 -10z m494 -27 c47 -30 52 -57 51 -259 0
-203 -8 -244 -49 -274 -22 -17 -49 -19 -258 -20 -329 -1 -314 -15 -310 295 l3
216 28 27 27 28 213 5 c232 6 261 5 295 -18z"/>
<path d="M3251 4061 l-31 -29 0 -217 0 -217 29 -29 29 -29 231 0 c229 0 230 0
258 24 l28 24 3 221 3 221 -33 30 -32 30 -227 0 -227 0 -31 -29z m501 -18 c22
-20 23 -51 1 -75 -21 -24 -48 -23 -73 2 -53 53 16 124 72 73z m-120 -71 c106
-73 119 -200 27 -292 -85 -85 -199 -90 -289 -13 -43 37 -80 106 -80 148 0 42
37 111 80 148 49 42 63 46 150 43 55 -1 72 -6 112 -34z"/>
<path d="M3686 4031 c-14 -15 -15 -24 -6 -40 15 -28 56 -28 71 1 10 18 8 24
-11 40 -28 23 -33 22 -54 -1z m52 -24 c4 -20 -25 -34 -40 -19 -15 15 -1 44 19
40 10 -2 19 -11 21 -21z"/>
<path d="M3488 3993 c12 -2 30 -2 40 0 9 3 -1 5 -23 4 -22 0 -30 -2 -17 -4z"/>
<path d="M3399 3966 c-20 -14 -44 -37 -53 -53 -16 -26 -16 -26 11 4 15 17 44
41 63 52 19 12 30 21 25 21 -6 0 -26 -11 -46 -24z"/>
<path d="M3612 3959 c15 -11 39 -35 54 -52 14 -18 21 -22 15 -11 -11 22 -77
84 -89 84 -4 0 5 -10 20 -21z"/>
<path d="M3470 3929 c-34 -14 -80 -59 -80 -78 0 -9 9 -2 20 16 24 41 48 53
102 53 36 0 50 -6 76 -31 18 -18 35 -43 38 -56 9 -35 -19 -89 -58 -113 -20
-12 -26 -20 -17 -20 21 0 77 62 85 95 19 76 -91 164 -166 134z"/>
<path d="M3453 3890 c-59 -36 -68 -82 -25 -131 39 -44 106 -52 144 -16 53 49
47 110 -14 147 -41 25 -65 25 -105 0z"/>
<path d="M3310 3814 c0 -21 4 -45 9 -53 5 -8 7 5 4 35 -7 61 -13 70 -13 18z"/>
<path d="M3702 3815 c0 -16 2 -22 5 -12 2 9 2 23 0 30 -3 6 -5 -1 -5 -18z"/>
<path d="M3390 3772 c0 -16 48 -62 75 -72 15 -6 36 -10 48 -9 12 1 3 5 -20 11
-28 6 -52 20 -72 44 -17 19 -31 31 -31 26z"/>
<path d="M3675 3733 c-11 -20 -37 -47 -57 -61 -46 -30 -51 -42 -5 -14 32 20
95 98 86 106 -3 3 -14 -11 -24 -31z"/>
<path d="M3360 3696 c23 -25 60 -52 60 -43 0 2 -19 19 -42 37 -38 29 -40 30
-18 6z"/>
<path d="M3483 3633 c15 -2 39 -2 55 0 15 2 2 4 -28 4 -30 0 -43 -2 -27 -4z"/>
<path d="M4815 4465 c-244 -54 -439 -235 -500 -465 -19 -69 -19 -248 -1 -315
60 -223 244 -401 476 -462 88 -23 255 -23 339 0 245 66 424 249 482 493 37
157 4 325 -93 470 -149 223 -437 337 -703 279z m347 -401 c22 -11 43 -14 74
-9 35 5 44 3 44 -9 0 -8 -4 -18 -10 -21 -5 -3 -10 -1 -10 4 0 6 -9 11 -20 11
-24 0 -27 -15 -5 -24 9 -3 20 -16 25 -28 7 -18 9 -19 9 -5 1 14 21 27 21 13 0
-16 -14 -36 -25 -36 -15 0 -25 -31 -25 -85 0 -22 -7 -49 -15 -59 -8 -11 -15
-27 -15 -36 0 -9 -9 -28 -20 -41 -71 -85 -104 -119 -133 -133 -17 -9 -39 -20
-47 -25 -53 -30 -97 -41 -167 -41 -119 0 -222 42 -198 80 3 6 32 10 64 10 55
0 91 16 74 33 -3 4 -1 7 6 7 9 0 11 -8 8 -21 -4 -16 -3 -18 8 -9 22 18 7 37
-34 44 -45 7 -69 31 -69 68 0 18 -11 40 -31 60 -31 32 -40 61 -21 73 6 3 10
17 10 30 0 13 -4 27 -10 30 -5 3 -10 24 -10 45 0 57 28 70 67 32 88 -88 257
-124 245 -52 -3 19 55 90 74 90 8 0 14 5 14 10 0 16 88 12 122 -6z"/>
<path d="M4930 3913 c-24 -12 -24 -13 -3 -13 12 0 25 5 28 11 11 16 2 17 -25
2z"/>
<path d="M4676 3892 c-3 -9 -9 -23 -12 -31 -10 -21 14 -4 26 19 6 11 6 21 1
24 -5 3 -11 -2 -15 -12z"/>
<path d="M4722 3750 c0 -19 2 -27 5 -17 2 9 2 25 0 35 -3 9 -5 1 -5 -18z"/>
<path d="M4680 3595 c0 -8 5 -15 10 -15 6 0 10 7 10 15 0 8 -4 15 -10 15 -5 0
-10 -7 -10 -15z"/>
<path d="M6285 4460 c-65 -13 -171 -55 -231 -91 -76 -46 -192 -171 -232 -250
-90 -180 -93 -371 -9 -551 89 -187 260 -317 477 -363 207 -44 429 21 589 171
135 127 201 275 201 451 0 154 -40 270 -137 396 -82 106 -238 202 -378 232
-75 16 -214 18 -280 5z m-79 -365 c28 -18 32 -60 7 -87 -21 -23 -101 -25 -109
-3 -4 8 -10 12 -15 10 -5 -3 -11 6 -15 21 -5 20 -2 31 12 41 10 8 18 17 17 21
-3 15 80 12 103 -3z m-11 -194 l30 -1 4 -174 c2 -95 0 -188 -4 -205 l-7 -32
-71 3 -72 3 -3 195 c-3 215 -2 216 59 214 19 -1 48 -2 64 -3z m253 -13 c17 -9
28 -8 49 3 15 8 54 14 92 14 76 0 107 -17 134 -74 23 -47 40 -199 31 -278 l-6
-63 -73 0 c-57 0 -74 3 -79 16 -3 9 -5 66 -4 127 l2 112 6 -120 6 -120 2 119
c2 103 -1 123 -18 150 -17 29 -24 32 -60 30 -27 -1 -50 -9 -65 -24 -22 -21
-23 -25 -18 -143 7 -147 5 -149 -89 -145 l-63 3 -3 194 c-1 110 2 198 7 205
11 14 117 10 149 -6z"/>
<path d="M6082 4050 c0 -14 2 -19 5 -12 2 6 2 18 0 25 -3 6 -5 1 -5 -13z"/>
<path d="M6084 3700 c0 -80 2 -112 3 -72 2 39 2 105 0 145 -1 39 -3 7 -3 -73z"/>
<path d="M6440 3870 c0 -6 7 -10 15 -10 8 0 15 2 15 4 0 2 -7 6 -15 10 -8 3
-15 1 -15 -4z"/>
<path d="M6304 3700 c0 -80 2 -112 3 -72 2 39 2 105 0 145 -1 39 -3 7 -3 -73z"/>
</g>
</svg>
